<svg width="52" height="38" viewBox="0 0 52 38" fill="none" xmlns="http://www.w3.org/2000/svg">
<path d="M46.352 6.63207C39.6 -0.151933 28.672 -0.151933 21.936 6.63207C15.2 13.4161 15.2 24.4241 21.936 31.2081C28.672 37.9921 39.616 37.9921 46.352 31.2081C53.104 24.4081 53.104 13.4161 46.352 6.63207Z" fill="#72BF00"/>
<path d="M16.864 18.904C16.864 13.08 19.744 7.92802 24.16 4.80802L19.424 0.0720215L0.591995 18.904L19.424 37.736L24.16 33C19.744 29.88 16.864 24.728 16.864 18.904Z" fill="#BDCCD4"/>
<path d="M24.112 4.76001C19.68 7.89601 16.784 13.064 16.784 18.904C16.784 24.76 19.68 29.928 24.112 33.048L38.272 18.904L24.112 4.76001Z" fill="#03755F"/>
</svg>
