<svg width="88" height="37" viewBox="0 0 88 37" fill="none" xmlns="http://www.w3.org/2000/svg">
<path fill-rule="evenodd" clip-rule="evenodd" d="M27.2988 10.9409L25.5884 24.4435C25.4449 25.5504 25.3349 26.473 25.238 27.4889H25.2149C25.1118 26.505 24.9559 25.5214 24.8016 24.3517L23.0044 10.9409H22.091L22.6253 14.9406L21.2694 24.5349C21.1152 25.6432 20.9593 26.6587 20.8567 27.6427H20.8281C20.7237 26.6268 20.5925 25.6128 20.449 24.4739L18.7033 10.9409H17.7607L20.4827 31.3017H21.1258L22.6253 20.845C22.7565 19.8911 22.9001 18.876 23.038 17.6777H23.0667C23.2051 18.9057 23.3487 19.9832 23.4687 20.845L24.9098 31.3017H25.5363L28.2116 10.9409H27.2988Z" fill="#002B3E"/>
<path fill-rule="evenodd" clip-rule="evenodd" d="M30.7676 29.5812C29.7218 29.5812 29.0908 27.3032 29.0908 23.8588C29.0908 20.4156 29.6938 18.2007 30.7558 18.2007C31.8358 18.2007 32.4437 20.4156 32.4437 23.8588C32.4437 27.3032 31.8128 29.5812 30.7676 29.5812ZM30.7558 16.293C30.0548 16.293 29.447 16.9705 28.9934 18.1695C28.4936 19.5234 28.2115 21.5213 28.2115 23.9212C28.2115 26.3226 28.4819 28.3815 28.9934 29.732C29.4346 30.9017 30.038 31.5198 30.7446 31.5198C31.4674 31.5198 32.0876 30.8727 32.5244 29.703C33.0359 28.3506 33.323 26.3226 33.323 23.9212C33.323 21.5213 33.0359 19.5234 32.5362 18.1695C32.0876 16.9705 31.4797 16.293 30.7558 16.293Z" fill="#002B3E"/>
<path fill-rule="evenodd" clip-rule="evenodd" d="M35.7802 29.4881C35.4478 29.4881 35.321 29.211 35.321 27.8266V9.43408H34.4535V28.841C34.4535 30.3788 34.7468 31.5195 35.4354 31.5195C35.7225 31.5195 35.9238 31.3642 36.1879 31.0262L36.0785 29.3952C35.935 29.4881 35.8435 29.4881 35.7802 29.4881Z" fill="#002B3E"/>
<path fill-rule="evenodd" clip-rule="evenodd" d="M38.8118 29.5187C38.445 29.5187 38.2673 28.9645 38.2673 27.7339V18.5686H39.6799L39.99 16.6613H38.2673V12.6943L37.3992 13.464V16.6613H36.4863V18.5686H37.3992V28.4118C37.3992 30.2861 37.7907 31.5196 38.5998 31.5196C39.1219 31.5196 39.6675 30.8726 40.0876 30.0729L39.8111 28.4727C39.5879 28.934 39.2195 29.5187 38.8118 29.5187Z" fill="#002B3E"/>
<path fill-rule="evenodd" clip-rule="evenodd" d="M41.3336 22.4134C41.3336 20.1064 41.8563 18.2006 42.6879 18.2006C43.5436 18.2006 43.9865 20.385 43.9865 22.4134H41.3336ZM42.6765 16.2925C41.3212 16.2925 40.3976 19.4289 40.3976 23.644C40.3976 27.7963 41.2523 31.5196 43.0103 31.5196C43.6641 31.5196 44.3771 30.9016 44.7842 30.0424L44.5195 28.5043C44.1865 29.0589 43.6641 29.5506 43.1874 29.5506C41.9414 29.5506 41.3212 27.0899 41.3212 24.32H44.9222V23.7978C44.9222 19.2766 44.1303 16.2925 42.6765 16.2925Z" fill="#002B3E"/>
<path fill-rule="evenodd" clip-rule="evenodd" d="M47.0868 18.3229L46.9667 16.6614H46.2534V31.2092H47.1215V20.4145C47.4771 19.4001 48.0288 18.6616 48.3608 18.6616C48.5964 18.6616 48.7747 18.785 48.8959 18.9068L49.2636 16.7238C49.1537 16.5396 48.9418 16.293 48.6939 16.293C48.2868 16.293 47.8617 16.5099 47.0868 18.3229Z" fill="#002B3E"/>
<path fill-rule="evenodd" clip-rule="evenodd" d="M50.5836 20.0143C50.5836 18.6916 51.0602 18.1694 51.6289 18.1694C52.2087 18.1694 52.6158 18.6002 53.0073 19.0292V17.061C52.6394 16.6316 52.1852 16.2925 51.5953 16.2925C50.3077 16.2925 49.729 18.046 49.729 20.1376C49.729 25.2442 52.2828 23.9805 52.2828 27.5497C52.2828 28.9036 51.7836 29.7029 51.0951 29.7029C50.4748 29.7029 49.9859 29.0878 49.729 28.6581L49.396 30.4109C49.7626 30.9651 50.2506 31.5196 51.0602 31.5196C52.2087 31.5196 53.1844 30.2556 53.1844 27.2132C53.1844 22.4439 50.5836 23.2737 50.5836 20.0143Z" fill="#002B3E"/>
<path fill-rule="evenodd" clip-rule="evenodd" d="M61.7463 11.0018H60.6617L57.7503 20.2611H57.7391V10.9409H56.871V31.2089H57.7391V22.0447H57.7503L60.8805 31.2089H62.029L58.5253 20.9668L61.7463 11.0018Z" fill="#002B3E"/>
<path fill-rule="evenodd" clip-rule="evenodd" d="M64.1924 29.4881C63.8594 29.4881 63.7281 29.211 63.7281 27.8266V9.43408H62.8612V28.841C62.8612 30.3788 63.1595 31.5195 63.8482 31.5195C64.1353 31.5195 64.336 31.3642 64.5951 31.0262L64.4919 29.3952C64.3483 29.4881 64.2507 29.4881 64.1924 29.4881Z" fill="#002B3E"/>
<path fill-rule="evenodd" clip-rule="evenodd" d="M69.791 16.6611H68.9241V27.6413C68.6885 28.4116 68.1378 29.5809 67.4256 29.5809C66.7248 29.5809 66.3356 28.6263 66.3356 26.1945V16.6611H65.4675V26.4122C65.4675 30.5039 66.4151 31.5194 67.179 31.5194C67.9248 31.5194 68.5797 30.6258 68.9936 29.7027L69.2235 31.2089H69.9122C69.8269 30.5938 69.791 29.7027 69.791 25.1207V16.6611Z" fill="#002B3E"/>
<path fill-rule="evenodd" clip-rule="evenodd" d="M76.5909 28.2578H76.5561L75.1553 16.6611H74.368L72.9784 28.2274H72.9437L71.5664 16.6611H70.6815L72.5589 31.3018H73.3227L74.7123 19.5524H74.747L76.1535 31.3018H76.9351L78.7891 16.6611H77.9458L76.5909 28.2578Z" fill="#002B3E"/>
<path fill-rule="evenodd" clip-rule="evenodd" d="M80.1563 22.4134C80.1563 20.1064 80.679 18.2006 81.5111 18.2006C82.3667 18.2006 82.8088 20.385 82.8088 22.4134H80.1563ZM81.4998 16.2925C80.1451 16.2925 79.2198 19.4289 79.2198 23.644C79.2198 27.7963 80.0756 31.5196 81.833 31.5196C82.4879 31.5196 83.2001 30.9016 83.6084 30.0424L83.3436 28.5043C83.0106 29.0589 82.4879 29.5506 82.0113 29.5506C80.7652 29.5506 80.1451 27.0899 80.1451 24.32H83.7452V23.7978C83.7452 19.2766 82.9523 16.2925 81.4998 16.2925Z" fill="#002B3E"/>
<mask id="mask0" mask-type="alpha" maskUnits="userSpaceOnUse" x="84" y="16" width="4" height="16">
<path d="M84.9105 16.293H87.9195V31.2092H84.9105V16.293Z" fill="white"/>
</mask>
<g mask="url(#mask0)">
<path fill-rule="evenodd" clip-rule="evenodd" d="M87.351 16.293C86.9439 16.293 86.5188 16.5099 85.7439 18.3229L85.6283 16.6614H84.9105V31.2092H85.7842V20.4145C86.1397 19.4001 86.6847 18.6616 87.0179 18.6616C87.2534 18.6616 87.4317 18.785 87.5528 18.9068L87.9196 16.7238C87.8164 16.5396 87.5989 16.293 87.351 16.293Z" fill="#002B3E"/>
</g>
<path fill-rule="evenodd" clip-rule="evenodd" d="M2.04517 5.66848H5.2647V0.92334C4.02653 1.73419 2.92229 3.40678 2.04517 5.66848Z" fill="#002B3E"/>
<path fill-rule="evenodd" clip-rule="evenodd" d="M11.9213 5.66838C11.0485 3.4052 9.93754 1.7315 8.70325 0.921387V5.66838H11.9213Z" fill="#002B3E"/>
<mask id="mask1" mask-type="alpha" maskUnits="userSpaceOnUse" x="5" y="0" width="4" height="6">
<path d="M5.40833 0.371582H8.55982V5.66831H5.40833V0.371582Z" fill="white"/>
</mask>
<g mask="url(#mask1)">
<path fill-rule="evenodd" clip-rule="evenodd" d="M8.55982 5.66831V0.836624C8.05364 0.535758 7.53167 0.371582 6.98831 0.371582C6.45026 0.371582 5.91163 0.532415 5.40833 0.834024V5.66831H8.55982Z" fill="#002B3E"/>
</g>
<path fill-rule="evenodd" clip-rule="evenodd" d="M8.70325 35.9623C9.93726 35.1485 11.0485 33.4803 11.9213 31.2183H8.70325V35.9623Z" fill="#002B3E"/>
<path fill-rule="evenodd" clip-rule="evenodd" d="M2.04517 31.2178C2.92215 33.4784 4.02667 35.1454 5.2647 35.9599V31.2178H2.04517Z" fill="#002B3E"/>
<mask id="mask2" mask-type="alpha" maskUnits="userSpaceOnUse" x="5" y="31" width="4" height="6">
<path d="M5.4082 31.2178H8.55969V36.5137H5.4082V31.2178Z" fill="white"/>
</mask>
<g mask="url(#mask2)">
<path fill-rule="evenodd" clip-rule="evenodd" d="M5.4082 31.2178V36.0472C5.91496 36.3499 6.4332 36.5138 6.97756 36.5138C7.52035 36.5138 8.05251 36.3529 8.55969 36.0532V31.2178H5.4082Z" fill="#002B3E"/>
</g>
<path fill-rule="evenodd" clip-rule="evenodd" d="M11.9214 13.9727H13.7527C13.4348 10.7817 12.7923 7.92644 11.9214 5.66846V5.66994V13.9727Z" fill="#002B3E"/>
<path fill-rule="evenodd" clip-rule="evenodd" d="M11.9214 22.8701V31.2182C12.7964 28.9484 13.4409 26.0801 13.7575 22.8701H11.9214Z" fill="#002B3E"/>
<path fill-rule="evenodd" clip-rule="evenodd" d="M11.9214 22.4983H13.7924C13.9073 21.1964 13.9715 19.8503 13.9715 18.4574C13.9715 17.0471 13.9063 15.6609 13.7888 14.3438H11.9214V22.4983Z" fill="#002B3E"/>
<path fill-rule="evenodd" clip-rule="evenodd" d="M2.04453 31.2177V22.8696H0.212036C0.523697 26.08 1.16941 28.9479 2.04453 31.2177Z" fill="#002B3E"/>
<path fill-rule="evenodd" clip-rule="evenodd" d="M2.04448 5.66846C1.17338 7.92681 0.529527 10.7809 0.216431 13.9727H2.04448V5.66846Z" fill="#002B3E"/>
<path fill-rule="evenodd" clip-rule="evenodd" d="M2.0451 14.3442H0.182747C0.0651745 15.6584 0 17.0197 0 18.4275C0 19.8233 0.0592887 21.1943 0.178871 22.4988H2.0451V14.3442Z" fill="#002B3E"/>
<mask id="mask3" mask-type="alpha" maskUnits="userSpaceOnUse" x="0" y="0" width="88" height="37">
<path d="M0 36.5137H87.9195V0.371582H0V36.5137Z" fill="white"/>
</mask>
<g mask="url(#mask3)">
<path fill-rule="evenodd" clip-rule="evenodd" d="M5.4082 22.4988H8.5597V14.3442H5.4082V22.4988Z" fill="#002B3E"/>
<path fill-rule="evenodd" clip-rule="evenodd" d="M13.2245 29.3638H13.483V31.2094H13.6899V29.3638H13.9193L13.9652 28.9399H13.2245V29.3638Z" fill="#636068"/>
<path fill-rule="evenodd" clip-rule="evenodd" d="M14.6142 29.7133C14.5862 29.8206 14.5683 29.9179 14.5509 30.0004H14.5453C14.5278 29.909 14.5054 29.8281 14.4824 29.7322L14.2582 28.9399H14.0747V31.2065H14.2811V30.0338C14.2811 29.9729 14.2811 29.883 14.2761 29.8076H14.2811C14.2991 29.8931 14.3221 29.9614 14.3389 30.0283L14.4992 30.6055H14.5912L14.7348 30.0483C14.7527 29.9874 14.7863 29.8541 14.7925 29.8076V30.0513V31.2065H14.9939V28.9399H14.8093L14.6142 29.7133Z" fill="#636068"/>
<path fill-rule="evenodd" clip-rule="evenodd" d="M5.26465 13.9727H5.33456V5.66992H5.26465V13.9727Z" fill="#002B3E"/>
<path fill-rule="evenodd" clip-rule="evenodd" d="M5.26465 22.4988H5.34016V14.3442H5.26465V22.4988Z" fill="#002B3E"/>
<path fill-rule="evenodd" clip-rule="evenodd" d="M5.26465 31.2177H5.34016V22.8696H5.26465V31.2177Z" fill="#002B3E"/>
<path fill-rule="evenodd" clip-rule="evenodd" d="M5.34021 13.9727H5.40826V5.66992H5.34021V13.9727Z" fill="#002B3E"/>
<path fill-rule="evenodd" clip-rule="evenodd" d="M5.33459 13.9727H5.34019V5.66992H5.33459V13.9727Z" fill="#002B3E"/>
<path fill-rule="evenodd" clip-rule="evenodd" d="M5.34021 22.4988H5.40826V14.3442H5.34021V22.4988Z" fill="#002B3E"/>
<path fill-rule="evenodd" clip-rule="evenodd" d="M5.34021 31.2177H5.40826V22.8696H5.34021V31.2177Z" fill="#002B3E"/>
<path fill-rule="evenodd" clip-rule="evenodd" d="M8.55969 13.9727H8.63075V5.66992H8.55969V13.9727Z" fill="#002B3E"/>
<path fill-rule="evenodd" clip-rule="evenodd" d="M8.55969 22.4988H8.63075V14.3442H8.55969V22.4988Z" fill="#002B3E"/>
<path fill-rule="evenodd" clip-rule="evenodd" d="M8.55969 31.2177H8.63075V22.8696H8.55969V31.2177Z" fill="#002B3E"/>
<path fill-rule="evenodd" clip-rule="evenodd" d="M8.63135 13.9727H8.70327V5.66992H8.63135V13.9727Z" fill="#002B3E"/>
<path fill-rule="evenodd" clip-rule="evenodd" d="M8.63135 22.4988H8.70327V14.3442H8.63135V22.4988Z" fill="#002B3E"/>
<path fill-rule="evenodd" clip-rule="evenodd" d="M8.63135 31.2177H8.70327V22.8696H8.63135V31.2177Z" fill="#002B3E"/>
<path fill-rule="evenodd" clip-rule="evenodd" d="M2.04504 14.1847H5.26458V13.9727H2.04504V14.1847Z" fill="#002B3E"/>
<path fill-rule="evenodd" clip-rule="evenodd" d="M5.2647 14.1846H2.04517V14.1853V14.3439H5.2647V14.1846Z" fill="#002B3E"/>
<path fill-rule="evenodd" clip-rule="evenodd" d="M5.4082 14.1847H8.5597V13.9727H5.4082V14.1847Z" fill="#002B3E"/>
<path fill-rule="evenodd" clip-rule="evenodd" d="M5.4082 14.3439H8.5597V14.1846H5.4082V14.3439Z" fill="#002B3E"/>
<path fill-rule="evenodd" clip-rule="evenodd" d="M8.70325 14.1847H11.9213V13.9727H8.70325V14.1847Z" fill="#002B3E"/>
<path fill-rule="evenodd" clip-rule="evenodd" d="M8.70325 14.3439H11.9213V14.1846H8.70325V14.3439Z" fill="#002B3E"/>
<path fill-rule="evenodd" clip-rule="evenodd" d="M5.26465 14.1847H5.33456V13.9727H5.26465V14.1847Z" fill="#002B3E"/>
<path fill-rule="evenodd" clip-rule="evenodd" d="M5.34016 14.3439V14.1846H5.33456H5.26465V14.3439H5.34016Z" fill="#002B3E"/>
<path fill-rule="evenodd" clip-rule="evenodd" d="M5.34021 14.1847H5.40826V13.9727H5.34021V14.1847Z" fill="#002B3E"/>
<path fill-rule="evenodd" clip-rule="evenodd" d="M5.33459 14.1847H5.34019V13.9727H5.33459V14.1847Z" fill="#002B3E"/>
<path fill-rule="evenodd" clip-rule="evenodd" d="M5.34021 14.3439H5.40826V14.1846H5.34021V14.3439Z" fill="#002B3E"/>
<path fill-rule="evenodd" clip-rule="evenodd" d="M8.55969 14.1847H8.63075V13.9727H8.55969V14.1847Z" fill="#002B3E"/>
<path fill-rule="evenodd" clip-rule="evenodd" d="M8.55969 14.3439H8.63075V14.1846H8.55969V14.3439Z" fill="#002B3E"/>
<path fill-rule="evenodd" clip-rule="evenodd" d="M8.63135 14.1847H8.70327V13.9727H8.63135V14.1847Z" fill="#002B3E"/>
<path fill-rule="evenodd" clip-rule="evenodd" d="M8.63135 14.3439H8.70327V14.1846H8.63135V14.3439Z" fill="#002B3E"/>
<path fill-rule="evenodd" clip-rule="evenodd" d="M2.04504 22.7005H5.26458V22.498H2.04504V22.7005Z" fill="#002B3E"/>
<path fill-rule="evenodd" clip-rule="evenodd" d="M2.04504 22.8697H5.26458V22.7007H2.04504V22.8697Z" fill="#002B3E"/>
<path fill-rule="evenodd" clip-rule="evenodd" d="M5.4082 22.7005H8.5597V22.498H5.4082V22.7005Z" fill="#002B3E"/>
<path fill-rule="evenodd" clip-rule="evenodd" d="M5.4082 22.8702H8.5597V22.7012H5.4082V22.8702Z" fill="#002B3E"/>
<path fill-rule="evenodd" clip-rule="evenodd" d="M8.70325 22.7005H11.9213V22.498H8.70325V22.7005Z" fill="#002B3E"/>
<path fill-rule="evenodd" clip-rule="evenodd" d="M8.70325 22.8702H11.9213V22.7012H8.70325V22.8702Z" fill="#002B3E"/>
<path fill-rule="evenodd" clip-rule="evenodd" d="M5.26465 22.701H5.34016V22.4985H5.26465V22.701Z" fill="#002B3E"/>
<path fill-rule="evenodd" clip-rule="evenodd" d="M5.26465 22.8697H5.34016V22.7007H5.26465V22.8697Z" fill="#002B3E"/>
<path fill-rule="evenodd" clip-rule="evenodd" d="M5.34021 22.701H5.40826V22.4985H5.34021V22.701Z" fill="#002B3E"/>
<path fill-rule="evenodd" clip-rule="evenodd" d="M5.34021 22.8702H5.40826V22.7012H5.34021V22.8702Z" fill="#002B3E"/>
<path fill-rule="evenodd" clip-rule="evenodd" d="M8.55969 22.7005H8.63075V22.498H8.55969V22.7005Z" fill="#002B3E"/>
<path fill-rule="evenodd" clip-rule="evenodd" d="M8.55969 22.8702H8.63075V22.7012H8.55969V22.8702Z" fill="#002B3E"/>
<path fill-rule="evenodd" clip-rule="evenodd" d="M8.63135 22.7005H8.70327V22.498H8.63135V22.7005Z" fill="#002B3E"/>
<path fill-rule="evenodd" clip-rule="evenodd" d="M8.63135 22.8702H8.70327V22.7012H8.63135V22.8702Z" fill="#002B3E"/>
</g>
</svg>
