<svg width="72" height="37" viewBox="0 0 72 37" fill="none" xmlns="http://www.w3.org/2000/svg">
<g clip-path="url(#clip0)">
<path d="M33.5216 23.6408L32.5805 29.1797C32.5808 29.209 32.5783 29.2381 32.5732 29.2652C32.568 29.2924 32.5603 29.3171 32.5506 29.3378C32.5408 29.3585 32.5291 29.3748 32.5163 29.3857C32.5035 29.3966 32.4898 29.4019 32.476 29.4013H31.0121C30.9075 29.4013 30.9075 29.4013 30.9075 29.1797C31.744 24.527 32.9988 16.551 33.9398 11.2336C34.0043 10.6524 34.0394 10.0582 34.0444 9.46114C34.0444 9.23959 34.0444 9.23959 34.1489 9.23959H36.1356C36.2401 9.01804 36.2401 9.23959 36.2401 9.23959C37.2858 15.6647 38.5406 22.533 39.5861 28.9582C39.5861 29.1797 39.5861 29.1797 39.4815 29.1797H37.8086C37.704 29.1797 37.704 29.1797 37.704 28.9582L36.763 23.4192H33.5216V23.6408ZM36.4493 20.539C36.1356 18.545 35.4037 14.3354 35.1945 12.1198C34.9854 14.1139 34.3581 17.6588 33.9398 20.539H36.4493ZM40.5271 21.8684C40.5271 17.4372 42.0955 13.8923 44.605 13.8923C44.8881 13.8419 45.173 13.9173 45.4415 14.1139V7.46715C45.4415 7.24561 45.4415 7.24561 45.5461 7.24561H47.1145C47.2191 7.24561 47.2191 7.24561 47.2191 7.46715V27.6288C47.2191 27.8504 47.2191 27.8504 47.1145 27.8504C46.1978 28.7794 45.202 29.3069 44.1868 29.4013C41.991 29.6229 40.5271 27.1857 40.5271 21.8684ZM45.337 17.2156C45.0684 17.0191 44.7835 16.9436 44.5005 16.9941C43.1412 16.9941 42.3047 18.7665 42.3047 21.8685C42.3047 25.4134 43.2457 26.7429 44.3959 26.7429C44.7096 26.7429 45.1278 26.5212 45.4415 26.5212V17.2156H45.337ZM56.0022 21.6468C56.0022 26.5212 54.5383 29.6229 52.4471 29.6229C49.9376 29.6229 48.892 25.6348 48.892 21.8684C48.892 17.2156 50.3559 14.1139 52.5516 14.1139C54.7474 13.8923 56.0022 17.4372 56.0022 21.6468ZM50.6695 21.6468C50.6695 24.7486 51.2969 26.7426 52.4471 26.7426C53.3881 26.7426 54.1201 25.4133 54.1201 21.6468C54.1201 18.7665 53.5973 16.551 52.3425 16.551C51.4015 16.7725 50.6695 18.545 50.6695 21.6468ZM59.139 7.46715C59.2435 7.46715 59.2435 7.46715 59.2435 7.6887V14.7785C59.7414 14.3459 60.2739 14.1203 60.8119 14.1139C62.7986 14.1139 64.0533 17.2156 64.0533 21.2037C64.0533 26.521 62.0667 29.8444 59.7663 29.8444C59.0233 29.8411 58.2842 29.6173 57.5705 29.1797C57.5567 29.1803 57.543 29.175 57.5302 29.1641C57.5174 29.1532 57.5057 29.1369 57.4959 29.1162C57.4862 29.0955 57.4785 29.0708 57.4733 29.0437C57.4682 29.0165 57.4657 28.9874 57.466 28.9582V7.6887C57.466 7.46715 57.466 7.46715 57.5705 7.46715H59.139ZM60.4982 16.9941C60.1063 17.0138 59.7182 17.1633 59.348 17.4372V26.521C59.6165 26.7176 59.9015 26.7931 60.1845 26.7426C61.2301 26.7426 62.4849 24.9701 62.4849 21.4252C62.3804 18.545 61.5439 16.9941 60.4983 16.9941H60.4982ZM67.3993 22.533C67.3993 24.9702 68.1312 26.521 69.595 26.521C70.2003 26.4974 70.8001 26.2731 71.3726 25.8564C71.3864 25.8558 71.4001 25.8611 71.4129 25.872C71.4258 25.8829 71.4374 25.8992 71.4472 25.9199C71.4569 25.9406 71.4646 25.9652 71.4698 25.9924C71.4749 26.0196 71.4774 26.0487 71.4771 26.0779V28.5151C71.4771 28.7367 71.4771 28.7367 71.3726 28.9582C70.8498 29.6229 70.1179 29.8445 69.1768 29.8445C66.5628 29.8445 65.5172 26.078 65.5172 22.09C65.5172 17.6588 66.7719 14.1139 68.9678 14.1139C71.1636 14.1139 72 17.6588 72 20.5391C72.0108 21.2109 71.9756 21.8826 71.8955 22.5331H67.3993L67.3993 22.533ZM69.6997 20.0958C70.2225 20.0958 70.327 19.8743 70.327 19.8743V19.4312C70.3235 19.0362 70.2824 18.6467 70.2062 18.2861C70.1301 17.9255 70.0204 17.6011 69.8838 17.3323C69.7472 17.0635 69.5864 16.8558 69.411 16.7215C69.2357 16.5873 69.0493 16.5292 68.8632 16.5509C67.9221 16.5509 67.3993 18.1018 67.2948 20.0958H69.6997Z" fill="#2D2D2D"/>
<path d="M12.4427 0L19.762 37V0H12.4427ZM0 0V37L7.31922 0H0ZM6.69191 29.467H10.0378L11.5017 37H14.534L9.82873 13.515L6.69191 29.467Z" fill="#FF0000"/>
</g>
<defs>
<clipPath id="clip0">
<rect width="72" height="37" fill="white"/>
</clipPath>
</defs>
</svg>
