<svg width="72" height="37" viewBox="0 0 72 37" fill="none" xmlns="http://www.w3.org/2000/svg">
<path fill-rule="evenodd" clip-rule="evenodd" d="M43.9912 35.5281C43.416 35.5281 42.8915 35.0488 42.4364 34.0826C41.9817 33.1172 41.7548 32.0678 41.7548 30.9822C41.7548 30.2775 41.8861 29.556 42.1501 28.8C42.4128 28.0457 42.7885 27.394 43.2685 26.8289C43.9645 28.5822 44.8006 30.8602 45.7637 33.6882C45.2208 34.9058 44.6296 35.5281 43.9912 35.5281ZM43.4186 20.1546C43.6185 19.7342 43.8777 19.5239 44.2093 19.5239C44.5436 19.5239 44.8085 19.7426 45.014 20.1807C45.2178 20.6205 45.3277 21.1772 45.3277 21.8886C45.3277 23.0827 44.863 24.1986 43.9501 25.2261C43.3894 23.7428 43.1184 22.5663 43.1184 21.7053C43.1184 21.0813 43.2184 20.5759 43.4186 20.1546ZM48.7095 35.6072C48.3932 35.6072 48.1026 35.418 47.8229 35.0555C47.5436 34.6923 47.1539 33.8328 46.6639 32.4798C46.8694 31.9526 47.0994 31.1344 47.3455 30.0101C47.6387 28.6461 47.9276 27.7152 48.2047 27.2233C48.4818 26.7305 48.8012 26.3916 49.173 26.1982V25.5676H46.2275V26.1982C46.9484 26.3572 47.3049 26.9223 47.3049 27.933C47.3049 28.3543 47.2237 28.9438 47.0727 29.6947C46.9222 30.4448 46.7202 31.1705 46.4592 31.8752C45.7349 29.8949 44.9695 27.8481 44.1548 25.7256C45.4709 24.45 46.1184 23.1407 46.1184 21.7835C46.1184 20.9114 45.9299 20.1925 45.532 19.6551C45.1331 19.1178 44.6762 18.8672 44.1818 18.8672C43.6281 18.8672 43.1712 19.2271 42.8047 19.9444C42.4381 20.6625 42.2592 21.4723 42.2592 22.3881C42.2592 23.5511 42.5272 24.8427 43.0639 26.2773C42.1733 27.4234 41.5645 28.3896 41.2504 29.1423C40.9357 29.8966 40.7865 30.8173 40.7865 31.9282C40.7865 32.8986 40.9161 33.7378 41.1683 34.477C41.4205 35.2178 41.7352 35.8023 42.1366 36.2109C42.5381 36.6205 42.964 36.8416 43.4047 36.8416C44.3032 36.8416 45.1615 35.9679 45.9683 34.2407C46.6469 35.9679 47.4336 36.8416 48.3277 36.8416C48.7401 36.8416 49.104 36.6036 49.4186 36.1588C49.7319 35.714 49.9349 35.1211 50.0322 34.3979H49.7049C49.4714 35.1918 49.1398 35.6072 48.7095 35.6072Z" fill="#002B3F"/>
<path fill-rule="evenodd" clip-rule="evenodd" d="M56.8912 19.5499C57.6487 19.5499 58.3325 20.0082 58.9364 20.9164C59.5408 21.8254 59.9405 23.4223 60.1364 25.7256H60.4366L60.3546 19.2346H60.0548C60.0138 20.0007 59.9056 20.7541 59.714 21.468C59.4478 20.8306 59.0372 20.2588 58.5005 19.7341C57.9616 19.2102 57.3616 18.9453 56.7005 18.9453C55.8993 18.9453 55.1619 19.2985 54.4912 20.0225C53.8205 20.7482 53.2973 21.8641 52.9229 23.3601C52.5489 24.8561 52.3639 26.4487 52.3639 28.1432C52.3639 30.7239 52.7653 32.8035 53.5774 34.3718C54.3891 35.9401 55.4472 36.7104 56.7275 36.7104C57.9384 36.7104 58.9342 35.8568 59.714 34.1616C59.92 34.6838 60.0565 35.2901 60.1364 35.9746H60.4366V29.957H60.1364C60.0836 30.951 59.9082 31.992 59.6184 33.0575C59.3287 34.1237 58.9416 34.8713 58.4459 35.3178C57.948 35.7627 57.4624 35.9746 56.9867 35.9746C56.0979 35.9746 55.3477 35.2968 54.7504 33.9253C54.1539 32.5521 53.8641 30.586 53.8641 28.012C53.8641 25.2942 54.136 23.1911 54.6823 21.7312C55.2291 20.2697 55.9621 19.5499 56.8912 19.5499Z" fill="#002B3F"/>
<path fill-rule="evenodd" clip-rule="evenodd" d="M4.52752 19.6027C5.28592 19.6027 5.9697 20.061 6.57275 20.9691C7.17625 21.8782 7.57595 23.475 7.77275 25.7783H8.07297L7.99094 19.3134H7.69115C7.65101 20.0795 7.52926 20.8068 7.33639 21.5208C7.07152 20.8834 6.6753 20.3099 6.13683 19.7868C5.59966 19.2629 4.99879 18.998 4.33683 18.998C3.53566 18.998 2.79821 19.3512 2.12752 20.0753C1.45683 20.801 0.933626 21.9168 0.559226 23.4128C0.18439 24.9088 0.000244141 26.5006 0.000244141 28.1959C0.000244141 30.775 0.401262 32.8545 1.21377 34.4245C2.02541 35.9928 3.06919 36.7631 4.35035 36.7631C5.56039 36.7631 6.55748 35.9356 7.33639 34.2404C7.54366 34.7659 7.69377 35.3672 7.77275 36.0534H8.07297V30.0098H7.77275C7.71995 31.0054 7.54454 32.0448 7.25479 33.1102C6.96592 34.1765 6.57886 34.924 6.08228 35.3705C5.58439 35.8154 5.09784 36.0534 4.62308 36.0534C3.73421 36.0534 2.98323 35.3478 2.38672 33.978C1.78934 32.6048 1.50046 30.6388 1.50046 28.0647C1.50046 25.3469 1.77144 23.2699 2.31864 21.81C2.86541 20.3502 3.59937 19.6027 4.52752 19.6027Z" fill="#002B3F"/>
<path fill-rule="evenodd" clip-rule="evenodd" d="M14.2468 7.09559C14.0361 7.73048 13.7716 8.12991 13.4561 8.33089C13.1402 8.52934 12.7283 8.64623 12.2151 8.64623H11.5741V0.65675C11.7321 0.623114 11.9581 0.604614 12.2561 0.604614C13.0682 0.604614 13.6534 0.937614 14.0151 1.60277C14.3769 2.26709 14.5606 3.30814 14.5606 4.73011C14.5606 5.66184 14.4576 6.46071 14.2468 7.09559ZM14.2468 0.420455C13.7481 0.141273 13.0425 0 12.1195 0C11.6182 0 10.9161 0.0378409 10.0193 0.105114L8.90137 0.184159V0.761864H9.065C9.51926 0.761864 9.81511 0.846796 9.95169 0.999C10.0887 1.1512 10.1707 1.41609 10.2105 1.813C10.2502 2.21075 10.279 3.10043 10.279 4.46775V12.8768C10.279 14.3123 10.2502 15.2432 10.2105 15.6359C10.1707 16.0286 10.0852 16.3178 9.93773 16.5037C9.79024 16.6887 9.51664 16.766 9.13351 16.766H8.90137V17.3446H13.0062V16.766H12.706C12.305 16.766 12.0336 16.6803 11.8878 16.4768C11.7425 16.2733 11.6483 15.9495 11.6151 15.5308C11.5819 15.1103 11.5741 14.2315 11.5741 12.8768V9.25084H12.5559C13.5783 9.25084 14.2913 9.0692 14.6971 8.69836C15.103 8.32668 15.4067 7.78598 15.6244 7.06952C15.8413 6.35055 15.9517 5.50964 15.9517 4.57286C15.9517 3.4923 15.7929 2.60093 15.4743 1.89205C15.1558 1.18316 14.746 0.699636 14.2468 0.420455Z" fill="#002B3F"/>
<path fill-rule="evenodd" clip-rule="evenodd" d="M3.6789 0.762275H3.88312C4.33519 0.762275 4.62275 0.847207 4.75584 0.99857C4.89024 1.15077 4.98755 1.41818 5.02857 1.81341C5.07046 2.21032 5.08312 3.10252 5.08312 4.46732V10.3015C5.08312 12.2138 5.05824 13.5979 4.98799 14.427C4.91861 15.2587 4.70086 15.971 4.3605 16.5823C4.02057 17.1936 3.60341 17.5023 3.10639 17.5023C2.86159 17.5023 2.65868 17.4165 2.49243 17.2651C2.32748 17.1146 2.24675 16.9027 2.24675 16.6344C2.24675 16.5327 2.26683 16.3889 2.31526 16.1879C2.3685 15.9617 2.39686 15.7414 2.39686 15.5312C2.39686 15.178 2.33621 14.8811 2.20617 14.6373C2.07657 14.3926 1.90901 14.2698 1.71526 14.2698C1.52588 14.2698 1.36835 14.4178 1.23788 14.6903C1.10828 14.9627 1.04675 15.2898 1.04675 15.6884C1.04675 16.3494 1.23046 16.917 1.59221 17.3971C1.9557 17.8748 2.46101 18.106 3.13344 18.106C3.73213 18.106 4.26319 17.916 4.71526 17.5283C5.16734 17.139 5.53563 16.5924 5.80617 15.8726C6.07672 15.1519 6.2373 14.3976 6.29708 13.6391C6.35599 12.8806 6.37868 11.7799 6.37868 10.3276V4.46732C6.37868 3.04198 6.40312 2.14052 6.44675 1.76043C6.49039 1.38118 6.58421 1.11041 6.71948 0.972502C6.85475 0.83207 7.14144 0.762275 7.57912 0.762275H7.7973V0.18457H3.6789V0.762275Z" fill="#002B3F"/>
<path fill-rule="evenodd" clip-rule="evenodd" d="M23.1378 14.4008L19.865 0.183594H17.1517V0.762139H17.397C17.8508 0.762139 18.1353 0.84623 18.2697 0.998435C18.4045 1.15148 18.501 1.41637 18.5424 1.81328C18.5843 2.21018 18.597 3.09987 18.597 4.46719V11.9303C18.597 13.348 18.5821 14.3235 18.5285 14.8474C18.4761 15.3696 18.3194 15.8312 18.079 16.1878C17.8386 16.546 17.5353 16.7251 17.1517 16.7663V17.344H20.356V16.7663C19.9445 16.715 19.629 16.5098 19.4012 16.1356C19.173 15.7589 19.036 15.3191 18.9923 14.8213C18.9487 14.3218 18.9242 13.3859 18.9242 12.0093V1.97053L22.4697 17.344H22.7834L26.2879 1.97053V12.9032C26.2879 14.3386 26.2748 15.2434 26.2333 15.6361C26.1919 16.0288 26.0941 16.3156 25.9466 16.5031C25.7992 16.689 25.5356 16.7663 25.156 16.7663H24.8426V17.344H29.1242V16.7663H28.7289C28.3253 16.7663 28.053 16.6805 27.9107 16.477C27.7672 16.2752 27.6729 15.9742 27.638 15.5571C27.6026 15.14 27.5834 14.2268 27.5834 12.8771V4.46719C27.5834 3.041 27.6048 2.14123 27.6515 1.7603C27.6969 1.38105 27.7885 1.11112 27.9242 0.972366C28.06 0.833616 28.3584 0.762139 28.797 0.762139H29.1242V0.183594H26.3699L23.1378 14.4008Z" fill="#002B3F"/>
<path fill-rule="evenodd" clip-rule="evenodd" d="M29.5775 29.6151C29.3092 29.3065 28.8728 28.8886 28.282 28.379C27.6649 27.8433 27.2508 27.359 27.0139 26.9343C26.7726 26.5164 26.6456 26.0144 26.6456 25.4097C26.6456 24.9094 26.7403 24.4393 26.9318 24.0172C27.1238 23.5967 27.4214 23.3865 27.8321 23.3865C28.2632 23.3865 28.6511 23.6825 28.9775 24.2535C29.3057 24.827 29.5308 25.5956 29.6591 26.5921H29.8773V23.1502H29.6591C29.6399 23.5648 29.5553 23.9508 29.4004 24.3065C29.1302 23.7363 28.8658 23.3579 28.6092 23.1763C28.3518 22.9938 28.069 22.9131 27.7775 22.9131C27.2561 22.9131 26.8358 23.2066 26.4955 23.833C26.1556 24.4595 25.9775 25.2567 25.9775 26.1985C25.9775 26.8157 26.0661 27.3884 26.2228 27.9325C26.3798 28.4774 26.5854 28.9332 26.8638 29.2737C27.1426 29.6151 27.5694 30.0028 28.1183 30.456C28.7336 30.9623 29.1547 31.4349 29.3868 31.8755C29.6185 32.322 29.7276 32.8686 29.7276 33.5304C29.7276 34.1863 29.5963 34.7884 29.3323 35.3173C29.0678 35.8463 28.6956 36.1061 28.2139 36.1061C27.1435 36.1061 26.4684 34.7178 26.1822 31.9537H25.923V36.2112H26.1822C26.2358 35.6579 26.3148 35.2274 26.4274 34.923C26.9305 36.0321 27.5567 36.5787 28.3094 36.5787C28.964 36.5787 29.4863 36.2339 29.8773 35.5276C30.2687 34.8195 30.4638 33.8987 30.4638 32.7685C30.4638 32.0538 30.3796 31.4214 30.2185 30.8765C30.0558 30.3316 29.8459 29.9221 29.5775 29.6151Z" fill="#002B3F"/>
<path fill-rule="evenodd" clip-rule="evenodd" d="M35.2334 15.4786C34.7879 16.5432 34.1866 17.0813 33.4195 17.0813C32.545 17.0813 31.8935 16.5432 31.4558 15.4786C31.019 14.4123 30.8013 12.844 30.8013 10.7224C30.8013 8.63105 31.019 7.03332 31.4558 5.96536C31.8935 4.89741 32.5166 4.36259 33.3379 4.36259C34.1718 4.36259 34.8084 4.92432 35.247 6.01834C35.686 7.11152 35.9015 8.66973 35.9015 10.7224C35.9015 12.8314 35.6781 14.4123 35.2334 15.4786ZM35.9971 5.72907C35.2828 4.50975 34.3895 3.88916 33.3244 3.88916C32.2688 3.88916 31.3982 4.49546 30.6922 5.72907C29.9866 6.96184 29.6288 8.60582 29.6288 10.6433C29.6288 12.7322 29.9831 14.398 30.6787 15.6627C31.3747 16.9291 32.2653 17.5808 33.3518 17.5808C34.4672 17.5808 35.367 16.9291 36.0516 15.6627C36.7354 14.398 37.074 12.765 37.074 10.7224C37.074 8.61339 36.711 6.94923 35.9971 5.72907Z" fill="#002B3F"/>
<path fill-rule="evenodd" clip-rule="evenodd" d="M49.9334 12.141H50.097C50.3689 12.141 50.5543 12.1906 50.656 12.2722C50.7577 12.3529 50.8249 12.5085 50.8742 12.7456C50.9235 12.9819 50.9558 13.4545 50.9558 14.1642C50.9558 14.7688 50.8969 15.2667 50.7922 15.6619C50.6887 16.058 50.5046 16.3851 50.2197 16.6609C49.9338 16.9384 49.6135 17.0813 49.2649 17.0813C48.5846 17.0813 48.006 16.6113 47.5469 15.6358C47.0874 14.662 46.8649 12.9819 46.8649 10.6433C46.8649 8.29721 47.1101 6.67593 47.5879 5.75514C48.0653 4.83518 48.6217 4.36259 49.2649 4.36259C49.8876 4.36259 50.4112 4.75698 50.8467 5.54491C51.2831 6.33368 51.5541 7.40164 51.6518 8.7513H51.8831V4.33568H51.6518C51.6213 4.86882 51.5462 5.37336 51.4336 5.83418C50.8323 4.53918 50.0735 3.88916 49.1558 3.88916C48.0898 3.88916 47.2541 4.59636 46.6336 6.01834C46.0122 7.4378 45.6924 9.09775 45.6924 10.9848C45.6924 12.8919 46.0249 14.4712 46.6742 15.7149C47.3231 16.9569 48.136 17.5808 49.1152 17.5808C49.6026 17.5808 50.1245 17.3622 50.697 16.9502C51.1168 16.6458 51.4611 16.5028 51.7194 16.5028C51.7836 16.5028 51.8582 16.5028 51.9376 16.5297V15.1372C51.9376 13.9952 51.9551 13.2779 51.9922 12.9819C52.0288 12.6859 52.1078 12.4513 52.2243 12.3252C52.3404 12.1982 52.566 12.141 52.8924 12.141V11.6945H49.9334V12.141Z" fill="#002B3F"/>
<path fill-rule="evenodd" clip-rule="evenodd" d="M67.7184 34.5293C67.2729 35.5939 66.6712 36.1321 65.9049 36.1321C65.0296 36.1321 64.3645 35.5939 63.9273 34.5293C63.4905 33.4631 63.2728 31.8948 63.2728 29.7732C63.2728 27.681 63.4905 26.0841 63.9273 25.0161C64.3645 23.9482 65.0012 23.4125 65.8229 23.4125C66.6563 23.4125 67.293 23.9751 67.732 25.0683C68.1718 26.1623 68.3865 27.7197 68.3865 29.7732C68.3865 31.8822 68.1635 33.4631 67.7184 34.5293ZM68.4821 24.779C67.7669 23.5597 66.8736 22.9399 65.8093 22.9399C64.7533 22.9399 63.8832 23.5454 63.1776 24.779C62.472 26.0118 62.1138 27.6558 62.1138 29.6941C62.1138 31.7829 62.4541 33.4488 63.1501 34.7135C63.8457 35.9799 64.7372 36.6316 65.8229 36.6316C66.9395 36.6316 67.8384 35.9799 68.5231 34.7135C69.2064 33.4488 69.5594 31.8157 69.5594 29.7732C69.5594 27.6633 69.1964 25.9992 68.4821 24.779Z" fill="#002B3F"/>
<path fill-rule="evenodd" clip-rule="evenodd" d="M19.9638 30.9819L21.1503 25.41L22.3503 30.9819H19.9638ZM24.2319 34.8181L23.9186 33.4524L21.6412 22.9663H21.4366L19.4459 32.112C19.3023 32.7688 19.2081 33.1447 19.1867 33.2422C18.975 34.2765 18.804 34.9434 18.6547 35.2654C18.5055 35.5875 18.2782 35.8036 17.9731 35.8961V36.3427H20.0319V35.8961C19.8094 35.8961 19.6274 35.786 19.4865 35.5808C19.3477 35.3773 19.2822 35.083 19.2822 34.6869C19.2822 34.3161 19.4149 33.5374 19.6776 32.3223L19.8547 31.4814H22.4454L22.9774 33.925C23.1327 34.6331 23.2091 35.0434 23.2091 35.1864C23.2091 35.4656 23.1471 35.6708 23.0319 35.7641C22.9154 35.8583 22.6929 35.8961 22.3638 35.8961V36.3427H25.0501V35.8961C24.8097 35.8499 24.6377 35.733 24.5186 35.5539C24.3982 35.3773 24.3026 35.1292 24.2319 34.8181Z" fill="#002B3F"/>
<path fill-rule="evenodd" clip-rule="evenodd" d="M40.8106 10.4592C40.5448 10.4853 40.2961 10.5004 40.047 10.5114V4.46776C40.2067 4.44085 40.3467 4.44085 40.4698 4.44085C41.2666 4.44085 41.7867 4.72424 42.0246 5.28176C42.2615 5.84097 42.3789 6.58769 42.3789 7.51606C42.3789 8.04919 42.3396 8.49151 42.2698 8.85647C42.2 9.2189 42.1048 9.52667 41.9835 9.74951C41.8622 9.97319 41.7025 10.1321 41.5062 10.249C41.3107 10.3659 41.0763 10.4332 40.8106 10.4592ZM42.9379 13.5866C42.3043 11.9359 41.8326 10.9865 41.5467 10.7216C42.1812 10.5728 42.666 10.2028 42.9924 9.59226C43.3201 8.98092 43.4833 8.22326 43.4833 7.35797C43.4833 6.61797 43.3537 5.99822 43.1015 5.46592C42.8497 4.9311 42.5277 4.54428 42.1197 4.30967C41.7112 4.0759 41.1758 3.96826 40.5243 3.96826C40.1412 3.96826 39.6215 3.99181 38.97 4.04731L38.0017 4.12551V4.57288H38.1108C38.4634 4.57288 38.6995 4.64015 38.8064 4.75619C38.9115 4.87308 38.9805 5.08247 39.0106 5.38688C39.0416 5.69213 39.0516 6.36065 39.0516 7.41094V13.9019C39.0516 15.0035 39.0411 15.7015 39.0106 16.0042C38.9809 16.3061 38.9059 16.5197 38.7924 16.6609C38.6798 16.8039 38.4725 16.8712 38.1789 16.8712H37.9607V17.3177H41.247V16.8712H40.9197C40.609 16.8712 40.3882 16.7888 40.2791 16.6349C40.1687 16.4801 40.0993 16.2455 40.0744 15.9251C40.0491 15.6081 40.047 14.9329 40.047 13.9019V11.0109H40.3197C40.5034 11.0109 40.6282 11.0765 40.7155 11.195C40.8014 11.3153 40.9616 11.6205 41.1924 12.1671C41.4232 12.7112 41.6462 13.2822 41.8609 13.875C42.529 15.7317 43.0365 16.8745 43.3607 17.3177H45.1882V16.8712C44.7876 16.8451 44.4455 16.6281 44.1518 16.2144C43.8586 15.7973 43.4545 14.9219 42.9379 13.5866Z" fill="#002B3F"/>
<path fill-rule="evenodd" clip-rule="evenodd" d="M55.3607 11.9833L56.5607 6.38623L57.7607 11.9833H55.3607ZM59.6423 15.8195L59.3285 14.427L57.0516 3.96777H56.8469L54.8427 13.0866C54.6987 13.7442 54.6193 14.1201 54.597 14.2168C54.3867 15.2519 54.2008 15.9448 54.0516 16.2669C53.9023 16.589 53.6881 16.779 53.3831 16.8707V17.318H55.4423V16.8707C55.2193 16.8707 55.036 16.7874 54.8972 16.5823C54.7572 16.3771 54.6921 16.0584 54.6921 15.6623C54.6921 15.2915 54.8248 14.5128 55.0879 13.2968L55.2651 12.4559H57.8558L58.3742 14.9004C58.5287 15.6085 58.6194 16.0449 58.6194 16.1879C58.6194 16.467 58.5592 16.6462 58.4423 16.7395C58.3266 16.8337 58.1036 16.8707 57.7742 16.8707V17.318H60.4604V16.8707C60.2213 16.8253 60.0481 16.7345 59.9285 16.5553C59.8094 16.3788 59.7125 16.1307 59.6423 15.8195Z" fill="#002B3F"/>
<path fill-rule="evenodd" clip-rule="evenodd" d="M14.1957 23.5969H14.3729C14.7172 23.5969 14.9389 23.665 15.041 23.7811C15.1435 23.8971 15.2159 24.1057 15.2456 24.4118C15.2766 24.7162 15.2866 25.3855 15.2866 26.435V29.0637H11.7141V26.435C11.7141 25.3401 11.7325 24.6506 11.7687 24.3588C11.8045 24.0678 11.8808 23.8601 11.9869 23.7542C12.0925 23.6474 12.3037 23.5969 12.641 23.5969H12.7775V23.1504H9.66846V23.5969H9.8046C10.1541 23.5969 10.3688 23.665 10.4731 23.7811C10.5761 23.8971 10.6459 24.1057 10.6773 24.4118C10.7101 24.7162 10.7323 25.3855 10.7323 26.435V32.8999C10.7323 34.004 10.7101 34.7263 10.6773 35.0291C10.6459 35.331 10.5726 35.5446 10.4591 35.6858C10.3461 35.8288 10.1406 35.8961 9.84562 35.8961H9.66846V36.3426H12.7775V35.8961H12.6004C12.2901 35.8961 12.0702 35.8136 11.9594 35.6598C11.8485 35.5033 11.7813 35.2704 11.7547 34.95C11.7277 34.628 11.7141 33.9418 11.7141 32.8999V29.7204H15.2866V32.8999C15.2866 34.0057 15.2766 34.7003 15.2456 35.0022C15.2159 35.3049 15.1383 35.5412 15.0274 35.6858C14.9149 35.8288 14.7146 35.8961 14.4274 35.8961H14.1957V36.3426H17.2913V35.8961H17.1412C16.8353 35.8961 16.6245 35.8136 16.5137 35.6598C16.4033 35.5033 16.3348 35.2704 16.3095 34.95C16.2837 34.628 16.2685 33.9384 16.2685 32.8999V26.435C16.2685 25.3401 16.2881 24.6506 16.323 24.3588C16.3588 24.0678 16.4234 23.8601 16.5277 23.7542C16.6324 23.6474 16.8597 23.5969 17.1957 23.5969H17.2913V23.1504H14.1957V23.5969Z" fill="#002B3F"/>
<path fill-rule="evenodd" clip-rule="evenodd" d="M36.6958 34.5556C36.4863 35.1106 36.2712 35.4722 36.0413 35.6328C35.8087 35.7943 35.5146 35.8691 35.155 35.8691H34.6506C34.1928 35.8691 33.9096 35.7237 33.8049 35.4487C33.701 35.1729 33.6548 34.2521 33.6548 32.6897V29.5632H34.3914C34.682 29.5632 34.8958 29.6187 35.0184 29.6943C35.1406 29.7683 35.2274 29.9172 35.2911 30.1669C35.3544 30.4184 35.3867 30.9061 35.3867 31.6385H35.6184V27.1447H35.3867C35.3867 27.7914 35.3601 28.2354 35.3186 28.4582C35.2767 28.6819 35.1908 28.8475 35.0594 28.9585C34.9272 29.0687 34.6946 29.1158 34.3639 29.1158H33.6548V23.5969H34.596C35.0703 23.5969 35.4037 23.6541 35.6184 23.7542C35.8322 23.8551 36.0216 24.0796 36.1778 24.4639C36.3319 24.849 36.4658 25.5159 36.5732 26.435H36.8049L36.6413 23.1504H31.7592V23.5969C32.0917 23.5969 32.3099 23.6541 32.4138 23.7811C32.5172 23.9064 32.5896 24.1208 32.6184 24.4378C32.6485 24.7557 32.6594 25.4301 32.6594 26.435V32.8999C32.6594 34.0023 32.645 34.707 32.6184 34.9761C32.5914 35.2435 32.5263 35.4571 32.4277 35.6328C32.3287 35.8069 32.1231 35.896 31.7867 35.896H31.6366V36.3426H37.2823L37.4319 32.2431H37.2002C37.0794 33.2304 36.9053 34.0023 36.6958 34.5556Z" fill="#002B3F"/>
<path fill-rule="evenodd" clip-rule="evenodd" d="M66.2832 4.5725C66.5524 4.5725 66.7741 4.6465 66.9647 4.78273C67.1567 4.91895 67.285 5.10143 67.347 5.33436C67.409 5.56898 67.4426 5.98691 67.4426 6.56966V14.4532L63.3922 4.12598H61.3466V4.5725C61.7162 4.5725 61.9487 4.63304 62.0557 4.72975C62.163 4.82814 62.2385 5.04425 62.2878 5.38734C62.3371 5.73043 62.3698 6.39811 62.3698 7.41057V14.4271C62.3698 15.2243 62.3467 15.7103 62.3153 15.9248C62.283 16.1384 62.1861 16.3444 62.0151 16.5294C61.8449 16.7152 61.6027 16.8254 61.2789 16.8708V17.3182H63.8151V16.8708C63.4533 16.8708 63.1915 16.7825 63.0104 16.5824C62.8298 16.3814 62.7089 16.167 62.6696 15.9248C62.6312 15.6851 62.6151 15.1865 62.6151 14.4271V5.25532L67.4832 17.6335H67.6878V6.70168C67.6878 6.13659 67.7109 5.7565 67.7559 5.51852C67.8013 5.28223 67.9055 5.05686 68.0696 4.88784C68.235 4.71966 68.465 4.61875 68.7517 4.5725V4.12598H66.2832V4.5725Z" fill="#002B3F"/>
<path fill-rule="evenodd" clip-rule="evenodd" d="M71.4139 34.2666C71.2655 33.9824 71.0927 33.8462 70.8819 33.8462C70.676 33.8462 70.4966 33.9824 70.35 34.2666C70.203 34.5492 70.1318 34.8956 70.1318 35.2917C70.1318 35.6794 70.2051 36.0241 70.35 36.3168C70.4945 36.6086 70.6725 36.7372 70.8819 36.7372C71.0875 36.7372 71.2638 36.5985 71.4139 36.3168C71.5631 36.0326 71.6321 35.6954 71.6321 35.2917C71.6321 34.8956 71.5605 34.5492 71.4139 34.2666Z" fill="#002B3F"/>
</svg>
