<svg width="72" height="32" viewBox="0 0 72 32" fill="none" xmlns="http://www.w3.org/2000/svg">
<path fill-rule="evenodd" clip-rule="evenodd" d="M25.3548 18.121H17.1608V15.2873H30.3283V24.3529C27.0108 25.5862 22.9875 26.3161 18.1552 26.3161C8.30355 26.3161 0.0148926 22.1631 0.0148926 15.9322C0.0148926 9.33621 8.73092 5.4917 18.6291 5.4917C22.0381 5.4917 25.1167 5.77254 27.9587 6.41744V9.33621H27.9121C24.974 8.60719 21.6146 8.29831 18.6764 8.29831C10.1504 8.29831 5.55695 11.5825 5.55695 15.9046C5.55695 20.3659 10.9105 23.538 18.4413 23.538C21.1406 23.538 23.3172 23.3141 25.3548 22.7248V18.121Z" fill="#002A3C"/>
<path fill-rule="evenodd" clip-rule="evenodd" d="M60.302 25.7853L51.9187 14.8935L43.8193 25.7853H42.4463L32.1201 6.08154H37.3805L43.9643 19.1884L51.6371 9.08352H52.6284L60.3493 19.1332L66.9811 6.08154H71.9523L61.6787 25.7853H60.302Z" fill="#002A3C"/>
<mask id="mask0" mask-type="alpha" maskUnits="userSpaceOnUse" x="0" y="0" width="72" height="32">
<path d="M0 31.8261H71.9559V0H0V31.8261Z" fill="white"/>
</mask>
<g mask="url(#mask0)">
<path fill-rule="evenodd" clip-rule="evenodd" d="M0 31.8266H71.9559V29.1426H0V31.8266Z" fill="#002A3C"/>
<path fill-rule="evenodd" clip-rule="evenodd" d="M0 2.68586H71.9559V0H0V2.68586Z" fill="#002A3C"/>
</g>
</svg>
