<svg width="72" height="37" viewBox="0 0 72 37" fill="none" xmlns="http://www.w3.org/2000/svg">
<path fill-rule="evenodd" clip-rule="evenodd" d="M20.5886 19.1162C20.3712 19.2975 20.11 19.4573 19.8032 19.6017C19.4992 19.7387 19.155 19.8652 18.7783 19.9801C18.3979 20.0907 18.0039 20.1489 17.5923 20.1489C16.7125 20.1489 15.8994 19.9374 15.1533 19.5105C14.4083 19.0914 13.7656 18.4453 13.2253 17.5768C12.6858 16.7118 12.2634 15.65 11.9584 14.3977C11.6503 13.1431 11.4976 11.7177 11.4976 10.1173C11.4976 8.51615 11.6503 7.08767 11.9584 5.83305C12.2634 4.58386 12.692 3.52249 13.2425 2.6571C13.7928 1.78977 14.4532 1.13005 15.2207 0.677955C15.9902 0.22702 16.8356 0 17.7595 0C18.493 0 19.1649 0.126122 19.77 0.379142C20.3781 0.635655 20.9151 0.941841 21.3813 1.30042C21.2919 1.56314 21.2212 1.9221 21.1648 2.37381C21.1096 2.82591 21.0662 3.2035 21.0316 3.50309L20.9319 3.5613C20.8211 3.33506 20.6645 3.07971 20.4652 2.79681C20.2641 2.51546 20.0296 2.24148 19.7624 1.97953C19.4951 1.71371 19.1951 1.49096 18.8608 1.31206C18.5258 1.13704 18.1596 1.04778 17.7595 1.04778C17.1012 1.04778 16.4919 1.22358 15.9308 1.58176C15.369 1.93995 14.88 2.49256 14.4606 3.23338C14.0446 3.98158 13.7181 4.92342 13.4851 6.06046C13.251 7.20099 13.1334 8.55379 13.1334 10.1173C13.1334 11.6805 13.251 13.0309 13.4851 14.1742C13.7181 15.312 14.0446 16.2546 14.4606 16.9993C14.88 17.744 15.369 18.2931 15.9308 18.6494C16.4919 19.0111 17.1012 19.188 17.7595 19.188C18.1596 19.188 18.5299 19.1019 18.8691 18.9338C19.2087 18.7642 19.5217 18.5625 19.8032 18.3265C20.0892 18.0894 20.3451 17.8356 20.573 17.5643C20.8007 17.2892 20.9919 17.0525 21.1476 16.8437L21.2162 16.9559L21.0662 18.6211C20.9658 18.7712 20.8064 18.9366 20.5886 19.1162Z" fill="#002A3C"/>
<path fill-rule="evenodd" clip-rule="evenodd" d="M29.6578 9.06748C29.4748 8.16988 29.2189 7.42828 28.8896 6.84385C28.5622 6.25748 28.1765 5.8244 27.734 5.54033C27.2914 5.26092 26.8117 5.12122 26.2951 5.12122C25.7872 5.12122 25.3128 5.26092 24.8709 5.54033C24.4277 5.8244 24.0423 6.25748 23.7137 6.84385C23.3865 7.42828 23.1301 8.16988 22.9451 9.06748C22.7612 9.96314 22.6697 11.0261 22.6697 12.257C22.6697 13.4852 22.7612 14.5482 22.9451 15.4462C23.1301 16.343 23.3865 17.085 23.7137 17.6678C24.0423 18.2558 24.4277 18.6869 24.8709 18.971C25.3128 19.2519 25.7872 19.3924 26.2951 19.3924C26.8117 19.3924 27.2914 19.2519 27.734 18.971C28.1765 18.6869 28.5622 18.2558 28.8896 17.6678C29.2189 17.085 29.4748 16.343 29.6578 15.4462C29.8422 14.5482 29.9353 13.4852 29.9353 12.257C29.9353 11.0261 29.8422 9.96314 29.6578 9.06748ZM21.7444 8.88819C21.9836 7.90211 22.3216 7.06932 22.7559 6.38904C23.1886 5.70293 23.7084 5.18564 24.3124 4.82939C24.9168 4.47547 25.5783 4.29541 26.2951 4.29541C27.0229 4.29541 27.6874 4.47547 28.2919 4.82939C28.8965 5.18564 29.4152 5.70293 29.8486 6.38904C30.2822 7.06932 30.6206 7.90211 30.8605 8.88819C31.1012 9.87505 31.2221 10.995 31.2221 12.257C31.2221 13.5151 31.1012 14.6409 30.8605 15.6251C30.6206 16.6107 30.2822 17.4439 29.8486 18.1238C29.4152 18.8076 28.8965 19.314 28.2919 19.6509C27.6874 19.9815 27.0229 20.1488 26.2951 20.1488C25.5783 20.1488 24.9168 19.9815 24.3124 19.6509C23.7084 19.314 23.1886 18.8076 22.7559 18.1238C22.3216 17.4439 21.9836 16.6107 21.7444 15.6251C21.5025 14.6409 21.3824 13.5151 21.3824 12.257C21.3824 10.995 21.5025 9.87505 21.7444 8.88819Z" fill="#002A3C"/>
<path fill-rule="evenodd" clip-rule="evenodd" d="M35.9747 8.02C36.3207 7.06342 36.6766 6.01718 37.0432 4.87549C37.2365 4.95 37.3991 4.98725 37.5307 4.98725C37.6621 4.98725 37.8233 4.95 38.0171 4.87549C37.5172 6.04823 37.027 7.19419 36.5452 8.32153C36.063 9.44809 35.5991 10.6127 35.1529 11.8118C35.6507 13.2492 36.1529 14.6571 36.6562 16.0348C37.1593 17.4144 37.675 18.7819 38.2005 20.1479C38.0767 20.1188 37.9549 20.1021 37.8323 20.1021H37.4642H37.0971C36.9729 20.1021 36.8509 20.1188 36.7291 20.1479C36.3797 19.0656 36.0311 17.9673 35.6853 16.8466C35.3389 15.7286 34.9429 14.6067 34.4955 13.4809C34.0491 14.6067 33.6331 15.7286 33.2474 16.8466C32.8633 17.9673 32.4861 19.0656 32.1183 20.1479C32.0305 20.1188 31.9455 20.1021 31.8613 20.1021H31.6309H31.4032C31.3179 20.1021 31.2339 20.1188 31.1461 20.1479C31.671 18.9197 32.1837 17.6747 32.6827 16.4139C33.1825 15.155 33.6806 13.8721 34.18 12.5666C33.7248 11.2643 33.2678 9.98285 32.8085 8.72202C32.3488 7.46041 31.8769 6.17978 31.3958 4.87549C31.5171 4.90576 31.6366 4.93059 31.751 4.95349C31.8634 4.97639 31.9815 4.98725 32.1048 4.98725C32.2266 4.98725 32.3444 4.97639 32.4589 4.95349C32.574 4.93059 32.6916 4.90576 32.8138 4.87549C33.1016 5.86855 33.4146 6.85192 33.7475 7.82209C34.0807 8.78915 34.4464 9.84159 34.8509 10.967C35.2526 9.95996 35.6282 8.97504 35.9747 8.02Z" fill="#002A3C"/>
<path fill-rule="evenodd" clip-rule="evenodd" d="M2.67559 29.3341C2.91956 29.3341 3.17294 29.3415 3.43526 29.3539C3.69895 29.3733 3.95187 29.3791 4.19653 29.3791C4.45931 29.3791 4.72163 29.3749 4.98532 29.3706C5.24718 29.3625 5.50996 29.3485 5.77434 29.3341L4.21052 23.2814L2.67559 29.3341ZM8.91276 36.7435C8.7816 36.7105 8.65732 36.6958 8.53969 36.6958H8.16731H7.79378C7.67661 36.6958 7.55324 36.7105 7.42163 36.7435C7.3549 36.3787 7.26593 35.9387 7.15312 35.4214C7.04076 34.9064 6.91533 34.3647 6.77959 33.7996C6.64315 33.2365 6.50535 32.6661 6.36479 32.0851C6.22468 31.505 6.09261 30.9551 5.97085 30.4289C5.66978 30.4137 5.36481 30.4017 5.05549 30.3943C4.74547 30.3858 4.43569 30.3819 4.12545 30.3819C3.83447 30.3819 3.54807 30.3858 3.26695 30.3943C2.98491 30.4017 2.69921 30.4137 2.40799 30.4289C2.10761 31.668 1.83475 32.8492 1.59192 33.9692C1.34703 35.088 1.16359 36.0128 1.04183 36.7435C0.882466 36.7105 0.708428 36.6958 0.52132 36.6958C0.332835 36.6958 0.158797 36.7105 0.00012207 36.7435C0.76002 33.9653 1.50203 31.1984 2.22478 28.4509C2.94731 25.703 3.67556 22.9062 4.40749 20.064H4.67508C4.89979 20.9841 5.14377 21.981 5.40769 23.0533C5.66978 24.1243 5.93783 25.2101 6.20955 26.3084C6.48242 27.4019 6.75345 28.4897 7.02677 29.572C7.29895 30.652 7.55439 31.6579 7.79378 32.5865C8.0334 33.5125 8.25031 34.3468 8.44155 35.0737C8.63324 35.8071 8.791 36.362 8.91276 36.7435Z" fill="#002A3C"/>
<path fill-rule="evenodd" clip-rule="evenodd" d="M14.7175 25.6071C14.7102 24.6451 14.6914 23.9827 14.6627 23.6206C14.7436 23.6443 14.82 23.6664 14.8945 23.6858C14.9684 23.7056 15.0415 23.7122 15.1167 23.7122C15.2123 23.7122 15.3231 23.6831 15.449 23.6206C15.4276 24.0591 15.404 24.5791 15.3827 25.1845C15.3602 25.7903 15.3414 26.4419 15.3272 27.1353C15.3116 27.8284 15.2969 28.5417 15.2814 29.2732C15.2671 30.002 15.2557 30.7118 15.2488 31.3998C15.2417 32.2392 15.1665 32.9874 15.0222 33.6514C14.8789 34.3127 14.6737 34.875 14.407 35.3356C14.1417 35.7982 13.8148 36.1501 13.4261 36.3869C13.04 36.6259 12.5947 36.7431 12.092 36.7431C10.9845 36.7431 10.1792 36.319 9.67728 35.4718C9.17511 34.6184 8.92426 33.2746 8.92426 31.4386C8.92426 30.8511 8.93366 30.3284 8.95201 29.8728C8.97035 29.4164 8.97975 28.9515 8.97975 28.4757C8.97975 27.426 8.97127 26.4942 8.95682 25.6824C8.94215 24.871 8.92701 24.1837 8.91302 23.6206C9.00062 23.6443 9.09669 23.6664 9.20125 23.6858C9.30421 23.7056 9.40074 23.7122 9.48857 23.7122C9.5702 23.7122 9.64999 23.7056 9.7275 23.6858C9.80431 23.6664 9.88319 23.6443 9.96505 23.6206C9.94992 23.8946 9.93547 24.2547 9.92125 24.6983C9.90658 25.1414 9.89145 25.6455 9.87677 26.2086C9.86164 26.769 9.85017 27.3775 9.84398 28.0244C9.83504 28.6756 9.83183 29.3504 9.83183 30.0505C9.83183 30.475 9.83504 30.9182 9.84398 31.3723C9.85017 31.8294 9.87677 32.2718 9.92125 32.7041C9.96505 33.1345 10.0366 33.5478 10.1366 33.9424C10.2363 34.3348 10.378 34.6786 10.5624 34.9704C10.7474 35.2677 10.9808 35.4982 11.2608 35.6655C11.5415 35.8335 11.8889 35.9193 12.3032 35.9193C12.7091 35.9193 13.0503 35.8191 13.3273 35.6204C13.6047 35.4186 13.832 35.1579 14.0085 34.8319C14.1862 34.5063 14.3247 34.1334 14.424 33.7069C14.5242 33.2816 14.5948 32.8388 14.6402 32.3758C14.684 31.9136 14.7102 31.4514 14.7175 30.9888C14.7253 30.5274 14.729 30.1017 14.729 29.7137C14.729 27.9371 14.7253 26.5699 14.7175 25.6071Z" fill="#002A3C"/>
<path fill-rule="evenodd" clip-rule="evenodd" d="M18.313 24.8389C18.1213 24.8389 17.9195 24.8432 17.7095 24.847C17.499 24.8563 17.288 24.866 17.078 24.8855C16.8673 24.9014 16.6641 24.9254 16.4683 24.9491C16.2722 24.9766 16.0966 25.0085 15.9425 25.0438C15.9792 24.8191 15.9985 24.6196 15.9985 24.4442C15.9985 24.3084 15.9792 24.1147 15.9425 23.8633C16.43 23.8893 16.906 23.9102 17.3715 23.9289C17.8365 23.9494 18.313 23.958 18.8 23.958C19.2875 23.958 19.764 23.9494 20.2295 23.9289C20.695 23.9102 21.171 23.8893 21.6573 23.8633C21.6213 24.1147 21.603 24.3142 21.603 24.464C21.603 24.6266 21.6213 24.8191 21.6573 25.0438C21.5042 25.0085 21.3287 24.9766 21.1313 24.9491C20.9369 24.9254 20.7342 24.9014 20.5237 24.8855C20.3136 24.866 20.1025 24.8563 19.8924 24.847C19.6815 24.8432 19.4801 24.8389 19.2875 24.8389C19.2655 26.1269 19.2545 27.4207 19.2545 28.7188V31.9452C19.2545 32.7698 19.2639 33.5828 19.2823 34.3799C19.2994 35.1817 19.321 35.9698 19.3435 36.7433C19.174 36.7184 18.9917 36.7052 18.8 36.7052C18.6077 36.7052 18.4279 36.7184 18.2566 36.7433C18.28 35.9698 18.3004 35.1817 18.3183 34.3799C18.3375 33.5828 18.346 32.7698 18.346 31.9452V28.7188C18.346 27.4207 18.3355 26.1269 18.313 24.8389Z" fill="#002A3C"/>
<path fill-rule="evenodd" clip-rule="evenodd" d="M28.3877 27.3988C28.2341 26.642 28.0178 26.0165 27.7404 25.5244C27.4634 25.0308 27.1389 24.6648 26.7659 24.425C26.3928 24.1883 25.989 24.0715 25.5517 24.0715C25.1238 24.0715 24.723 24.1883 24.3516 24.425C23.9769 24.6648 23.6524 25.0308 23.3757 25.5244C23.0987 26.0165 22.8824 26.642 22.7277 27.3988C22.5727 28.1547 22.4952 29.0508 22.4952 30.0889C22.4952 31.1258 22.5727 32.0214 22.7277 32.7801C22.8824 33.5345 23.0987 34.1616 23.3757 34.6522C23.6524 35.1465 23.9769 35.5106 24.3516 35.7512C24.723 35.9883 25.1238 36.1066 25.5517 36.1066C25.989 36.1066 26.3928 35.9883 26.7659 35.7512C27.1389 35.5106 27.4634 35.1465 27.7404 34.6522C28.0178 34.1616 28.2341 33.5345 28.3877 32.7801C28.5429 32.0214 28.6207 31.1258 28.6207 30.0889C28.6207 29.0508 28.5429 28.1547 28.3877 27.3988ZM21.7142 27.2474C21.9173 26.4166 22.2012 25.7142 22.5667 25.1406C22.9336 24.562 23.3704 24.125 23.8792 23.8254C24.3896 23.5266 24.9473 23.3745 25.5517 23.3745C26.1662 23.3745 26.7266 23.5266 27.2371 23.8254C27.7461 24.125 28.1834 24.562 28.5491 25.1406C28.916 25.7142 29.1992 26.4166 29.4033 27.2474C29.605 28.0806 29.7059 29.0248 29.7059 30.0889C29.7059 31.1506 29.605 32.0994 29.4033 32.9299C29.1992 33.76 28.916 34.4628 28.5491 35.0379C28.1834 35.6142 27.7461 36.0407 27.2371 36.3243C26.7266 36.6037 26.1662 36.7435 25.5517 36.7435C24.9473 36.7435 24.3896 36.6037 23.8792 36.3243C23.3704 36.0407 22.9336 35.6142 22.5667 35.0379C22.2012 34.4628 21.9173 33.76 21.7142 32.9299C21.511 32.0994 21.4094 31.1506 21.4094 30.0889C21.4094 29.0248 21.511 28.0806 21.7142 27.2474Z" fill="#002A3C"/>
<path fill-rule="evenodd" clip-rule="evenodd" d="M32.8403 28.7951C33.3622 30.4688 33.9065 32.1876 34.4757 33.9502C34.5488 33.7123 34.6559 33.3735 34.7965 32.9296C34.9366 32.4868 35.0989 31.9745 35.2833 31.3998C35.4674 30.8259 35.6657 30.2065 35.8769 29.534C36.0869 28.8669 36.3 28.1889 36.5194 27.5005C36.7363 26.8136 36.9526 26.1376 37.1669 25.4744C37.3804 24.8139 37.5799 24.1946 37.765 23.6206H37.9099C37.9901 24.8193 38.066 25.9812 38.136 27.0981C38.2066 28.2177 38.2786 29.3167 38.3524 30.3974C38.4265 31.4805 38.4996 32.5477 38.5737 33.606C38.6459 34.6592 38.7301 35.7078 38.8168 36.7431C38.7301 36.7187 38.6418 36.7055 38.5565 36.7055H38.2969H38.0374C37.9516 36.7055 37.8645 36.7187 37.7767 36.7431C37.695 35.081 37.6141 33.4674 37.5311 31.909C37.4522 30.345 37.3511 28.7509 37.2328 27.1272H37.2103C36.7017 28.7031 36.2014 30.2674 35.7102 31.8255C35.219 33.379 34.7511 35.0069 34.309 36.7055H34.2097C33.7655 35.1315 33.3026 33.5559 32.8183 31.9722C32.3349 30.3908 31.8497 28.7765 31.3615 27.1272H31.3402C31.2879 27.9018 31.2304 28.7419 31.1683 29.6465C31.1063 30.5538 31.0476 31.4475 30.997 32.33C30.9458 33.2102 30.9004 34.0422 30.8621 34.8226C30.8266 35.6026 30.8085 36.2429 30.8085 36.7431C30.6904 36.7187 30.5601 36.7055 30.4207 36.7055C30.2802 36.7055 30.1506 36.7187 30.0325 36.7431C30.1286 35.7326 30.2284 34.6646 30.332 33.5392C30.4347 32.4142 30.5345 31.2822 30.6308 30.1452C30.7264 29.0054 30.8156 27.8859 30.8965 26.781C30.9777 25.6719 31.0476 24.6195 31.1077 23.6206H31.2957C31.8052 25.3949 32.3198 27.1214 32.8403 28.7951Z" fill="#002A3C"/>
<path fill-rule="evenodd" clip-rule="evenodd" d="M46.1698 27.3988C46.013 26.642 45.7974 26.0165 45.52 25.5244C45.2437 25.0308 44.9192 24.6648 44.5454 24.425C44.1731 24.1883 43.769 24.0715 43.3334 24.0715C42.9039 24.0715 42.5038 24.1883 42.1318 24.425C41.7583 24.6648 41.4339 25.0308 41.1557 25.5244C40.8794 26.0165 40.6634 26.642 40.5079 27.3988C40.3539 28.1547 40.2754 29.0508 40.2754 30.0889C40.2754 31.1258 40.3539 32.0214 40.5079 32.7801C40.6634 33.5345 40.8794 34.1616 41.1557 34.6522C41.4339 35.1465 41.7583 35.5106 42.1318 35.7512C42.5038 35.9883 42.9039 36.1066 43.3334 36.1066C43.769 36.1066 44.1731 35.9883 44.5454 35.7512C44.9192 35.5106 45.2437 35.1465 45.52 34.6522C45.7974 34.1616 46.013 33.5345 46.1698 32.7801C46.3241 32.0214 46.4019 31.1258 46.4019 30.0889C46.4019 29.0508 46.3241 28.1547 46.1698 27.3988ZM39.4949 27.2474C39.6974 26.4166 39.9817 25.7142 40.3474 25.1406C40.7132 24.562 41.1504 24.125 41.6611 23.8254C42.1699 23.5266 42.7273 23.3745 43.3334 23.3745C43.9463 23.3745 44.5058 23.5266 45.0169 23.8254C45.5262 24.125 45.9641 24.562 46.3296 25.1406C46.6949 25.7142 46.9801 26.4166 47.1824 27.2474C47.3862 28.0806 47.486 29.0248 47.486 30.0889C47.486 31.1506 47.3862 32.0994 47.1824 32.9299C46.9801 33.76 46.6949 34.4628 46.3296 35.0379C45.9641 35.6142 45.5262 36.0407 45.0169 36.3243C44.5058 36.6037 43.9463 36.7435 43.3334 36.7435C42.7273 36.7435 42.1699 36.6037 41.6611 36.3243C41.1504 36.0407 40.7132 35.6142 40.3474 35.0379C39.9817 34.4628 39.6974 33.76 39.4949 32.9299C39.291 32.0994 39.1897 31.1506 39.1897 30.0889C39.1897 29.0248 39.291 28.0806 39.4949 27.2474Z" fill="#002A3C"/>
<path fill-rule="evenodd" clip-rule="evenodd" d="M49.7063 24.8389C49.5144 24.8389 49.3144 24.8432 49.1044 24.847C48.8927 24.8563 48.6816 24.866 48.4715 24.8855C48.261 24.9014 48.0583 24.9254 47.8625 24.9491C47.6674 24.9766 47.4915 25.0085 47.3374 25.0438C47.3727 24.8191 47.3927 24.6196 47.3927 24.4442C47.3927 24.3084 47.3727 24.1147 47.3374 23.8633C47.8242 23.8893 48.3002 23.9102 48.7662 23.9289C49.2303 23.9494 49.7063 23.958 50.1936 23.958C50.6826 23.958 51.1587 23.9494 51.6242 23.9289C52.0887 23.9102 52.5647 23.8893 53.0538 23.8633C53.0167 24.1147 52.9963 24.3142 52.9963 24.464C52.9963 24.6266 53.0167 24.8191 53.0538 25.0438C52.8975 25.0085 52.7223 24.9766 52.5264 24.9491C52.3311 24.9254 52.1284 24.9014 51.9174 24.8855C51.7058 24.866 51.4962 24.8563 51.2862 24.847C51.0752 24.8432 50.875 24.8389 50.6826 24.8389C50.6597 26.1269 50.6476 27.4207 50.6476 28.7188V31.9452C50.6476 32.7698 50.6574 33.5828 50.6755 34.3799C50.695 35.1817 50.7154 35.9698 50.7375 36.7433C50.5673 36.7184 50.3859 36.7052 50.1936 36.7052C50.0023 36.7052 49.8216 36.7184 49.6508 36.7433C49.6733 35.9698 49.6937 35.1817 49.7134 34.3799C49.7306 33.5828 49.7407 32.7698 49.7407 31.9452V28.7188C49.7407 27.4207 49.7299 26.1269 49.7063 24.8389Z" fill="#002A3C"/>
<mask id="mask0" mask-type="alpha" maskUnits="userSpaceOnUse" x="53" y="23" width="3" height="14">
<path d="M53.9934 23.8638H55.0803V36.7437H53.9934V23.8638Z" fill="white"/>
</mask>
<g mask="url(#mask0)">
<path fill-rule="evenodd" clip-rule="evenodd" d="M54.0551 26.2919C54.0363 25.4987 54.017 24.6896 53.9934 23.8638C54.0906 23.8886 54.1833 23.9107 54.2713 23.9282C54.3591 23.9488 54.4486 23.9573 54.5364 23.9573C54.6251 23.9573 54.7139 23.9488 54.8024 23.9282C54.8911 23.9107 54.9842 23.8886 55.0803 23.8638C55.0578 24.6896 55.0379 25.4987 55.0195 26.2919C54.9991 27.0851 54.9913 27.895 54.9913 28.7193V31.9449C54.9913 32.7688 54.9991 33.5833 55.0195 34.38C55.0379 35.181 55.0578 35.9699 55.0803 36.7437C54.9104 36.7181 54.7272 36.7049 54.5364 36.7049C54.3452 36.7049 54.164 36.7181 53.9934 36.7437C54.017 35.9699 54.0363 35.181 54.0551 34.38C54.0734 33.5833 54.0833 32.7688 54.0833 31.9449V28.7193C54.0833 27.895 54.0734 27.0851 54.0551 26.2919Z" fill="#002A3C"/>
</g>
<path fill-rule="evenodd" clip-rule="evenodd" d="M58.4585 34.083C58.215 33.0457 57.9543 31.9501 57.6775 30.8015C57.4005 29.6501 57.1157 28.4762 56.8241 27.2763C56.5326 26.076 56.2547 24.9397 55.9883 23.8647C56.0908 23.8892 56.191 23.9105 56.2871 23.9292C56.3827 23.9497 56.4758 23.9583 56.5629 23.9583C56.6516 23.9583 56.7452 23.9497 56.8408 23.9292C56.9376 23.9105 57.0369 23.8892 57.1391 23.8647C57.3012 24.6898 57.4831 25.5552 57.6775 26.459C57.8738 27.3678 58.0793 28.2891 58.2971 29.2255C58.5154 30.1646 58.7392 31.1139 58.968 32.0767C59.1973 33.0387 59.4291 33.996 59.6649 34.9433C59.7976 34.4318 59.943 33.861 60.0978 33.2281C60.2532 32.5994 60.4105 31.9428 60.5692 31.2605C60.7272 30.5799 60.8843 29.8872 61.0395 29.1789C61.1952 28.4734 61.344 27.7959 61.4894 27.1462C61.6316 26.4943 61.7632 25.8877 61.8813 25.3266C61.9991 24.7639 62.0991 24.2765 62.181 23.8647C62.3435 23.9264 62.4793 23.9583 62.5905 23.9583C62.7019 23.9583 62.8379 23.9264 62.9998 23.8647C62.4245 26.0383 61.8703 28.1956 61.3392 30.3338C60.8079 32.4709 60.298 34.6057 59.8098 36.7436C59.6922 36.7187 59.5688 36.7055 59.4438 36.7055C59.2959 36.7055 59.1742 36.7187 59.0785 36.7436C58.9093 36.007 58.702 35.1191 58.4585 34.083Z" fill="#002A3C"/>
<path fill-rule="evenodd" clip-rule="evenodd" d="M63.9698 26.2631C63.951 25.4637 63.9315 24.6646 63.9079 23.8633C64.2411 23.8893 64.5706 23.9106 64.9003 23.9289C65.2289 23.949 65.5598 23.9584 65.8909 23.9584C66.2236 23.9584 66.5519 23.949 66.8773 23.9289C67.2018 23.9106 67.5308 23.8893 67.8628 23.8633C67.8408 24.0499 67.8303 24.2393 67.8303 24.424C67.8303 24.6142 67.8408 24.8005 67.8628 24.9883C67.6271 24.9642 67.4114 24.9398 67.2158 24.9138C67.0199 24.8882 66.8122 24.8637 66.5957 24.8389C66.3772 24.8152 66.1374 24.7919 65.881 24.7733C65.6224 24.7539 65.3135 24.7461 64.9489 24.7461C64.9432 25.1447 64.9331 25.5262 64.9216 25.8874C64.9118 26.2499 64.9056 26.6636 64.9056 27.1273C64.9056 27.6128 64.9065 28.0901 64.9118 28.5511C64.915 29.0141 64.917 29.3641 64.917 29.6005C65.242 29.6005 65.5341 29.5943 65.7921 29.5818C66.0507 29.571 66.286 29.5535 66.5006 29.5341C66.7143 29.5174 66.9133 29.4988 67.0931 29.479C67.2745 29.4604 67.4458 29.4379 67.6088 29.4138C67.5863 29.6005 67.5753 29.7933 67.5753 29.9936C67.5753 30.1845 67.5863 30.3704 67.6088 30.5563C67.4164 30.519 67.1935 30.4872 66.9399 30.4632C66.684 30.4379 66.4286 30.4228 66.1741 30.4166C65.9191 30.4096 65.6792 30.4061 65.4531 30.398C65.2289 30.3917 65.0507 30.389 64.917 30.389C64.917 30.5016 64.915 30.6234 64.9118 30.7534C64.9065 30.885 64.9056 31.0515 64.9056 31.2513V31.9832V33.1074C64.9056 33.8192 64.9065 34.4079 64.9118 34.8689C64.915 35.3303 64.9203 35.6819 64.9281 35.919H65.7035C65.9844 35.919 66.2596 35.9093 66.5283 35.8918C66.798 35.8732 67.0527 35.8484 67.2926 35.8138C67.5331 35.7847 67.7416 35.7378 67.9186 35.6749C67.9034 35.7634 67.895 35.8592 67.8899 35.9667C67.8878 36.0719 67.8858 36.1693 67.8858 36.2543C67.8858 36.4576 67.8966 36.6187 67.9186 36.7433C67.5863 36.7184 67.2561 36.7052 66.928 36.7052H65.9248H64.917C64.5848 36.7052 64.2493 36.7184 63.9079 36.7433C63.9315 35.9438 63.951 35.1464 63.9698 34.3543C63.9879 33.5592 63.998 32.752 63.998 31.9262V28.7029C63.998 27.8751 63.9879 27.0637 63.9698 26.2631Z" fill="#002A3C"/>
<path fill-rule="evenodd" clip-rule="evenodd" d="M69.8022 24.0951H69.4496V23.7563H70.3776V24.0951H70.0242V27.0274H69.8022V24.0951Z" fill="#002A3C"/>
<path fill-rule="evenodd" clip-rule="evenodd" d="M71.7508 25.6214C71.7366 25.1879 71.7238 24.7079 71.7304 24.3408H71.7174C71.6772 24.7052 71.6266 25.0936 71.5644 25.477L71.3292 27.0103H71.1865L70.9621 25.5407C70.8942 25.1255 70.8428 24.7195 70.7995 24.3408H70.7931C70.7979 24.7211 70.7816 25.1809 70.7697 25.6466L70.7321 27.027H70.5351L70.6516 23.7563H70.891L71.1125 25.2527C71.1824 25.6831 71.229 26.004 71.2695 26.3836H71.2789C71.3131 26.004 71.3581 25.6913 71.4213 25.2527L71.6408 23.7563H71.8861L71.9973 27.027H71.7933L71.7508 25.6214Z" fill="#002A3C"/>
</svg>
