<svg width="175" height="56" viewBox="0 0 175 56" fill="none" xmlns="http://www.w3.org/2000/svg">
<path d="M91.3343 0.318115H95.9314C99.0836 0.318115 101.185 2.82266 101.185 6.38175C101.185 8.35903 100.528 9.94084 99.3463 10.9954C98.4269 11.7863 97.2448 12.1818 95.6687 12.1818H91.203V0.318115H91.3343ZM95.5373 10.0727C97.7702 10.0727 98.6896 8.75448 98.6896 6.38175C98.6896 4.00902 97.6388 2.42721 95.6687 2.42721H93.6985V10.2045H95.5373V10.0727Z" fill="white"/>
<path d="M107.227 11.259C106.701 11.9181 106.176 12.4453 104.731 12.4453C103.024 12.4453 101.71 11.5226 101.71 9.80896C101.71 7.96351 103.287 7.30442 105.125 7.04078C106.57 6.77714 107.227 6.77714 107.227 6.11805C107.227 5.45896 106.701 5.06351 105.782 5.06351C104.731 5.06351 104.206 5.45896 104.206 6.24987H102.236C102.367 4.79987 103.418 3.48169 105.913 3.48169C108.409 3.48169 109.46 4.66805 109.46 6.64533V10.8635C109.46 11.5226 109.591 11.9181 109.722 12.0499V12.1817H107.49C107.358 12.0499 107.358 11.6544 107.227 11.259ZM107.227 9.14987V7.83169C106.833 8.09533 106.176 8.22714 105.651 8.35896C104.469 8.6226 103.943 8.88624 103.943 9.67714C103.943 10.4681 104.469 10.7317 105.257 10.7317C106.57 10.8635 107.227 9.94078 107.227 9.14987Z" fill="white"/>
<path d="M110.116 3.61366H111.299V0.977295H113.531V3.61366H114.976V5.06366H113.531V9.54548C113.531 10.2046 113.925 10.3364 114.319 10.3364C114.582 10.3364 114.976 10.3364 114.976 10.3364V12.1818C114.976 12.1818 114.451 12.1818 113.531 12.1818C112.481 12.1818 111.167 11.7864 111.167 10.0727V5.19548H109.985V3.61366H110.116Z" fill="white"/>
<path d="M121.281 11.259C120.755 11.9181 120.23 12.4453 118.785 12.4453C117.078 12.4453 115.764 11.5226 115.764 9.80896C115.764 7.96351 117.34 7.30442 119.179 7.04078C120.624 6.77714 121.281 6.77714 121.281 6.11805C121.281 5.45896 120.755 5.06351 119.836 5.06351C118.785 5.06351 118.26 5.45896 118.26 6.24987H116.29C116.29 4.79987 117.472 3.48169 119.967 3.48169C122.463 3.48169 123.513 4.66805 123.513 6.64533V10.8635C123.513 11.5226 123.645 11.9181 123.776 12.0499V12.1817H121.543C121.412 12.0499 121.412 11.6544 121.281 11.259ZM121.281 9.14987V7.83169C120.887 8.09533 120.361 8.22714 119.704 8.35896C118.522 8.6226 117.997 8.88624 117.997 9.67714C117.997 10.4681 118.522 10.7317 119.31 10.7317C120.624 10.8635 121.281 9.94078 121.281 9.14987Z" fill="white"/>
<path d="M91.3344 19.2998H93.6985V31.1634H91.3344V19.2998Z" fill="white"/>
<path d="M97.6389 23.7815C98.2956 22.8588 99.0836 22.3315 100.266 22.3315C101.973 22.3315 103.155 23.6497 103.155 25.4952V31.0315H100.922V25.7588C100.922 24.8361 100.397 24.177 99.4777 24.177C98.4269 24.177 97.7702 24.9679 97.7702 26.1543V31.0315H95.5374V22.4634H97.7702V23.7815H97.6389Z" fill="white"/>
<path d="M103.812 22.5953H104.994V19.959H107.227V22.5953H108.672V24.0453H107.227V28.5272C107.227 29.1863 107.621 29.3181 108.015 29.3181C108.278 29.3181 108.672 29.3181 108.672 29.3181V31.0317C108.672 31.0317 108.146 31.0317 107.227 31.0317C106.176 31.0317 104.863 30.6363 104.863 28.9226V23.9135H103.812V22.5953Z" fill="white"/>
<path d="M109.328 26.8134C109.328 24.3088 111.036 22.3315 113.531 22.3315C116.29 22.3315 117.734 24.4406 117.734 27.4725H111.561C111.693 28.7906 112.481 29.5815 113.794 29.5815C114.713 29.5815 115.239 29.1861 115.37 28.527H117.603C117.34 29.977 115.896 31.2952 113.794 31.2952C110.904 31.427 109.328 29.4497 109.328 26.8134ZM111.561 26.0225H115.37C115.37 24.9679 114.582 24.177 113.531 24.177C112.349 24.177 111.693 24.8361 111.561 26.0225Z" fill="white"/>
<path d="M118.785 19.2998H121.018V31.1634H118.785V19.2998Z" fill="white"/>
<path d="M122.463 19.2998H124.827V31.1634H122.594V19.2998H122.463Z" fill="white"/>
<path d="M126.272 19.2998H128.504V21.2771H126.272V19.2998ZM126.272 22.5953H128.504V31.1634H126.272V22.5953Z" fill="white"/>
<path d="M129.687 31.427H131.919C132.051 31.9543 132.576 32.3497 133.627 32.3497C134.94 32.3497 135.466 31.6907 135.466 30.6361V29.7134C134.94 30.2407 134.284 30.7679 133.233 30.7679C131.394 30.7679 129.555 29.3179 129.555 26.6816C129.555 24.177 131.131 22.4634 133.233 22.4634C134.284 22.4634 135.072 22.8588 135.597 23.6497V22.727H137.83V30.6361C137.83 31.8225 137.436 32.6134 136.779 33.2725C136.122 33.9316 134.94 34.1952 133.758 34.1952C131.394 34.0634 129.949 33.0088 129.687 31.427ZM135.728 26.5497C135.728 25.3634 135.072 24.177 133.758 24.177C132.576 24.177 131.788 25.0997 131.788 26.5497C131.788 27.9997 132.576 28.7907 133.758 28.7907C135.072 28.7907 135.728 27.7361 135.728 26.5497Z" fill="white"/>
<path d="M138.881 26.8134C138.881 24.3088 140.588 22.3315 143.084 22.3315C145.842 22.3315 147.287 24.4406 147.287 27.4725H141.113C141.245 28.7906 142.033 29.5815 143.346 29.5815C144.266 29.5815 144.791 29.1861 144.922 28.527H147.155C146.893 29.977 145.448 31.2952 143.346 31.2952C140.457 31.427 138.881 29.4497 138.881 26.8134ZM141.113 26.0225H144.922C144.922 24.9679 144.134 24.177 143.084 24.177C141.902 24.177 141.245 24.8361 141.113 26.0225Z" fill="white"/>
<path d="M150.439 23.7815C151.095 22.8588 151.884 22.3315 153.066 22.3315C154.773 22.3315 155.955 23.6497 155.955 25.4952V31.0315H153.722V25.7588C153.722 24.8361 153.197 24.177 152.278 24.177C151.227 24.177 150.57 24.9679 150.57 26.1543V31.0315H148.337V22.4634H150.57V23.7815H150.439Z" fill="white"/>
<path d="M156.875 26.9452C156.875 24.4407 158.582 22.4634 161.078 22.4634C163.31 22.4634 164.624 23.7816 164.887 25.627H162.654C162.522 24.8361 161.866 24.3088 161.078 24.3088C159.764 24.3088 158.976 25.3634 158.976 26.9452C158.976 28.527 159.633 29.5816 160.946 29.5816C161.866 29.5816 162.522 29.0543 162.654 28.1316H164.887C164.755 29.977 163.31 31.427 161.078 31.427C158.582 31.427 156.875 29.4497 156.875 26.9452Z" fill="white"/>
<path d="M165.675 26.8134C165.675 24.3088 167.382 22.3315 169.878 22.3315C172.636 22.3315 174.081 24.4406 174.081 27.4725H167.908C168.039 28.7906 168.827 29.5815 170.14 29.5815C171.06 29.5815 171.585 29.1861 171.716 28.527H173.949C173.687 29.977 172.242 31.2952 170.14 31.2952C167.251 31.427 165.675 29.4497 165.675 26.8134ZM167.908 26.0225H171.716C171.585 24.9679 170.928 24.177 169.878 24.177C168.696 24.177 168.039 24.8361 167.908 26.0225Z" fill="white"/>
<path d="M90.809 44.2135C90.809 40.6544 93.0418 38.0181 96.4567 38.0181C99.3463 38.0181 101.054 39.7317 101.316 41.9726H98.9522C98.6896 40.7862 97.9015 39.9953 96.4567 39.9953C94.2239 39.9953 93.1731 41.8408 93.1731 44.2135C93.1731 46.5862 94.4866 48.4317 96.4567 48.4317C97.9015 48.4317 98.8209 47.6408 98.9522 46.3226H101.316C101.185 47.3772 100.791 48.4317 100.003 49.0908C99.2149 49.8817 98.0328 50.409 96.4567 50.409C93.1731 50.409 90.809 47.7726 90.809 44.2135Z" fill="white"/>
<path d="M102.499 38.2817H104.731V50.1454H102.499V38.2817Z" fill="white"/>
<path d="M105.782 45.9271C105.782 43.4226 107.621 41.4453 110.248 41.4453C112.875 41.4453 114.713 43.4226 114.713 45.9271C114.713 48.4317 112.875 50.4089 110.248 50.4089C107.621 50.4089 105.782 48.4317 105.782 45.9271ZM112.349 45.9271C112.349 44.2135 111.561 43.1589 110.248 43.1589C108.803 43.1589 108.146 44.3453 108.146 45.9271C108.146 47.5089 108.934 48.6953 110.248 48.6953C111.561 48.6953 112.349 47.5089 112.349 45.9271Z" fill="white"/>
<path d="M121.018 50.1453V49.0908C120.493 49.8817 119.836 50.2772 118.522 50.2772C116.684 50.409 115.633 49.0908 115.633 47.2453V41.5771H117.866V46.8499C117.866 47.9044 118.26 48.4317 119.31 48.4317C120.361 48.4317 121.018 47.6408 121.018 46.4544V41.5771H123.251V50.1453H121.018Z" fill="white"/>
<path d="M124.302 45.9272C124.302 43.2908 125.746 41.4454 127.979 41.4454C129.161 41.4454 129.949 41.9727 130.343 42.7636V38.4136H132.576V50.2772H130.343V49.2227C129.818 50.0136 129.03 50.5408 127.848 50.5408C125.746 50.409 124.302 48.5636 124.302 45.9272ZM130.475 45.9272C130.475 44.3454 129.949 43.159 128.505 43.159C127.322 43.159 126.666 44.2136 126.666 45.7954C126.666 47.3772 127.322 48.4318 128.505 48.4318C129.687 48.4318 130.475 47.509 130.475 45.9272Z" fill="white"/>
<mask id="mask0" mask-type="alpha" maskUnits="userSpaceOnUse" x="0" y="6" width="51" height="44">
<path fill-rule="evenodd" clip-rule="evenodd" d="M50.4741 6.56226H0.957699V49.535H50.4741V6.56226Z" fill="white"/>
</mask>
<g mask="url(#mask0)">
<path fill-rule="evenodd" clip-rule="evenodd" d="M17.1129 18.8213H18.295C20.3965 11.7032 27.095 6.56226 35.2383 6.56226C41.6741 6.56226 47.4532 9.98953 50.4741 15.1304H37.4711V49.535H16.1935C6.7368 49.535 0.957699 42.6804 0.957699 34.1123C0.957699 25.5441 8.18158 18.8213 17.1129 18.8213Z" fill="#72BF00"/>
</g>
<path fill-rule="evenodd" clip-rule="evenodd" d="M69.4001 34.1954C69.4001 25.7591 62.1762 18.7727 53.1135 18.7727H51.9314C51.5374 17.4545 51.012 16.2682 50.3553 15.0818H77.5433V55.2863H37.4836V49.4863H54.1642C63.6209 49.4863 69.4001 42.6318 69.4001 34.1954Z" fill="#BDCCD4"/>
<path fill-rule="evenodd" clip-rule="evenodd" d="M50.4866 15.0818C51.1433 16.2682 51.6687 17.4545 52.0627 18.7727H53.2448C62.1761 18.7727 69.5314 25.6272 69.5314 34.1954C69.5314 42.7636 63.7523 49.6182 54.2956 49.6182H37.4836V15.0818H50.4866Z" fill="#03755F"/>
</svg>
