<svg width="23" height="24" viewBox="0 0 23 24" fill="none" xmlns="http://www.w3.org/2000/svg">
<path d="M4.43854 0.973633H0.123672V5.35316H4.43854V0.973633Z" fill="#72BF00"/>
<path d="M12.3491 0.973633H8.03427V5.35316H12.3491V0.973633Z" fill="#72BF00"/>
<path d="M20.2597 0.973633H15.9449V5.35316H20.2597V0.973633Z" fill="#72BF00"/>
<path d="M4.43854 9.00269H0.123672V13.3822H4.43854V9.00269Z" fill="#72BF00"/>
<path d="M4.43854 17.032H0.123672V21.4115H4.43854V17.032Z" fill="#72BF00"/>
<path d="M6.59598 23.6012H22.4172V7.54297H6.59598V23.6012ZM15.6104 10.3438H19.6577V14.4518H15.6104V10.3438ZM15.6104 16.7858H19.6577V20.8937H15.6104V16.7858ZM9.44747 10.2505H13.4948V14.3584H9.44747V10.2505ZM9.44747 16.7858H13.4948V20.8937H9.44747V16.7858Z" fill="#BDCCD4"/>
<path d="M13.0683 9.73267H8.75342V14.1122H13.0683V9.73267Z" fill="#03755F"/>
<path d="M19.5406 9.73267H15.2257V14.1122H19.5406V9.73267Z" fill="#03755F"/>
<path d="M13.0683 16.302H8.75342V20.6815H13.0683V16.302Z" fill="#03755F"/>
<path d="M19.5406 16.302H15.2257V20.6815H19.5406V16.302Z" fill="#03755F"/>
</svg>
