<svg width="23" height="24" viewBox="0 0 23 24" fill="none" xmlns="http://www.w3.org/2000/svg">
<path d="M8.26964 13.0382L9.42306 11.8494L8.26964 13.0382ZM10.197 15.0258L2.1467 23.3225L0.219305 21.3359L8.26964 13.0382L10.197 15.0258Z" fill="#BDCCD4"/>
<path d="M9.42249 11.8494L11.3499 13.836L9.77833 15.4568L7.85093 13.4692L9.42249 11.8494Z" fill="#03755F"/>
<path d="M11.6827 14.1781L11.6789 14.183L9.08704 11.5115L9.09082 11.5066L11.6827 14.1781Z" fill="#BDCCD4"/>
<path d="M12.4541 2.99146L19.9174 10.684L14.1012 16.6798L6.63701 8.98727L12.4541 2.99146Z" fill="#BDCCD4"/>
<path d="M11.2364 0.301514L13.1516 2.27547L6.01113 9.63526L4.09695 7.6613L11.2364 0.301514Z" fill="#72BF00"/>
<path d="M22.527 11.939L15.3866 19.2988L13.4705 17.3249L20.6119 9.96411L22.527 11.939Z" fill="#72BF00"/>
</svg>
