<svg width="64" height="64" viewBox="0 0 64 64" fill="none" xmlns="http://www.w3.org/2000/svg">
<path d="M15.04 32.16C15.056 32.144 15.072 32.128 15.088 32.112C15.44 31.712 15.808 31.344 16.208 30.992C18.24 29.2 20.896 28.096 23.824 28.096C25.952 28.096 27.936 28.672 29.632 29.68C29.632 29.68 29.632 29.68 29.648 29.68C29.632 29.648 29.616 29.616 29.6 29.584C28.896 28.096 28.496 26.432 28.496 24.672C28.496 24.256 28.512 23.856 28.56 23.456C28.608 22.944 28.704 22.432 28.832 21.952C28.848 21.872 28.88 21.792 28.896 21.712C29.008 21.296 29.136 20.88 29.296 20.48C29.328 20.4 29.36 20.32 29.392 20.224C29.568 19.808 29.76 19.408 29.984 19.024C30.016 18.976 30.032 18.928 30.064 18.88C30.32 18.448 30.608 18.016 30.912 17.616C31.232 17.216 31.552 16.816 31.92 16.464C31.904 16.448 31.888 16.448 31.888 16.432C29.792 14.4 26.96 13.152 23.808 13.152C17.456 13.152 12.288 18.304 12.272 24.656C12.272 24.672 12.272 24.688 12.272 24.688C12.272 27.52 13.296 30.128 14.992 32.144C15.024 32.128 15.04 32.144 15.04 32.16Z" fill="#72BF00"/>
<path d="M40.064 51.1999C46.448 51.1999 51.616 46.0319 51.616 39.6479C51.616 39.2639 51.6 38.8959 51.552 38.5279C51.52 38.2239 51.488 37.9199 51.424 37.6159C51.424 37.5839 51.424 37.5679 51.408 37.5359C51.04 35.5039 50.128 33.6639 48.848 32.1439C48.512 32.5439 48.144 32.8959 47.76 33.2479C45.712 35.0719 43.024 36.2079 40.048 36.2079C37.936 36.2079 35.984 35.6319 34.288 34.6559C34.272 34.6399 34.256 34.6399 34.24 34.6239C34.976 36.1439 35.392 37.8399 35.392 39.6319C35.392 39.9359 35.376 40.2399 35.344 40.5279C35.344 40.5919 35.344 40.6559 35.328 40.7199C35.12 42.9119 34.304 44.9279 33.04 46.5919C32.72 47.0079 32.384 47.4239 32 47.7919C31.984 47.8079 31.968 47.8399 31.936 47.8559C34.048 49.9359 36.896 51.1999 40.064 51.1999Z" fill="#72BF00"/>
<path d="M40.064 13.04C36.896 13.04 34.048 14.32 31.952 16.368C29.872 14.304 27.008 13.04 23.84 13.04C17.456 13.04 12.288 18.208 12.288 24.592C12.288 24.608 12.288 24.624 12.288 24.624C12.304 18.272 17.472 13.12 23.824 13.12C26.976 13.12 29.808 14.368 31.904 16.4C31.92 16.416 31.936 16.416 31.936 16.432C32.496 16.992 32.992 17.6 33.44 18.256C34.656 20.096 35.376 22.288 35.376 24.656C35.376 25.088 35.344 25.504 35.296 25.92C35.344 25.472 35.376 25.04 35.376 24.576C35.376 22.224 34.672 20.048 33.472 18.224C35.136 16.496 37.472 15.424 40.048 15.424C45.104 15.424 49.2 19.536 49.2 24.576C49.2 26.8 48.4 28.832 47.088 30.416C45.136 28.912 42.704 28 40.048 28C37.936 28 35.952 28.576 34.256 29.568C34.24 29.6 34.24 29.632 34.224 29.648C35.936 28.64 37.92 28.064 40.048 28.064C42.704 28.064 45.136 28.96 47.072 30.448C47.712 30.928 48.288 31.488 48.8 32.096C48.816 32.112 48.832 32.128 48.848 32.144C48.512 32.544 48.144 32.896 47.76 33.248C48.144 32.896 48.512 32.544 48.848 32.144C50.128 33.648 51.04 35.504 51.408 37.536C51.04 35.472 50.128 33.6 48.832 32.064C50.56 30.048 51.6 27.44 51.6 24.576C51.6 18.208 46.432 13.04 40.064 13.04Z" fill="#BDCCD4"/>
<path d="M29.648 34.64C29.632 34.64 29.632 34.656 29.616 34.656C29.264 35.408 28.992 36.192 28.8 37.024C29.008 36.192 29.28 35.392 29.648 34.64Z" fill="#BDCCD4"/>
<path d="M33.024 46.624C32.704 47.04 32.368 47.456 31.984 47.824C32.368 47.456 32.72 47.04 33.024 46.624C33.04 46.624 33.04 46.624 33.024 46.624Z" fill="#BDCCD4"/>
<path d="M15.024 32.1279C13.328 34.1439 12.304 36.7359 12.304 39.5679C12.304 45.9519 17.472 51.1199 23.856 51.1199C26.992 51.1199 29.824 49.8719 31.904 47.8399C31.344 47.2799 30.832 46.6399 30.4 45.9679C28.736 47.6639 26.416 48.7199 23.856 48.7199C18.8 48.7199 14.704 44.6079 14.704 39.5679C14.704 37.3759 15.472 35.3599 16.768 33.7919C16.144 33.3119 15.568 32.7679 15.056 32.1599C15.04 32.1439 15.024 32.1279 15.024 32.1279Z" fill="#BDCCD4"/>
<path d="M29.648 29.6801C27.936 28.6721 25.952 28.0961 23.84 28.0961C25.952 28.0961 27.936 28.6721 29.648 29.6801Z" fill="#BDCCD4"/>
<path d="M35.328 40.752C35.328 40.688 35.328 40.624 35.344 40.56C35.376 40.256 35.392 39.952 35.392 39.648C35.392 37.856 34.976 36.16 34.24 34.64C34.24 34.64 34.24 34.64 34.224 34.64C34.96 36.16 35.376 37.856 35.376 39.648C35.376 40.048 35.36 40.432 35.312 40.816C35.328 40.8 35.328 40.768 35.328 40.752Z" fill="#BDCCD4"/>
<path d="M47.072 30.464C45.136 28.976 42.704 28.08 40.048 28.08C37.92 28.08 35.936 28.656 34.224 29.664C34.24 29.632 34.24 29.6 34.256 29.584C34.32 29.456 34.352 29.328 34.416 29.216C34.464 29.12 34.496 29.024 34.544 28.928C34.64 28.688 34.736 28.448 34.816 28.208C34.864 28.032 34.928 27.872 34.96 27.696C35.008 27.504 35.072 27.312 35.104 27.104C35.168 26.832 35.216 26.544 35.248 26.256C35.264 26.144 35.28 26.048 35.296 25.936C35.344 25.52 35.376 25.104 35.376 24.672C35.376 22.304 34.656 20.112 33.44 18.272C33.008 17.616 32.496 16.992 31.936 16.448C31.568 16.8 31.248 17.2 30.928 17.6C29.648 19.248 28.8 21.248 28.56 23.44C28.512 23.84 28.496 24.256 28.496 24.656C28.496 26.416 28.896 28.064 29.6 29.568C29.616 29.6 29.632 29.632 29.648 29.664C29.648 29.664 29.648 29.664 29.632 29.664C27.92 28.656 25.936 28.08 23.808 28.08C20.88 28.08 18.224 29.184 16.192 30.976C15.792 31.328 15.408 31.696 15.072 32.096C15.056 32.112 15.04 32.128 15.024 32.144C15.536 32.736 16.112 33.28 16.736 33.776C18.688 35.296 21.152 36.208 23.808 36.208C25.92 36.208 27.904 35.632 29.6 34.64C29.616 34.64 29.616 34.624 29.632 34.624C29.264 35.376 28.976 36.176 28.784 36.992C28.784 37.008 28.784 37.024 28.768 37.024C28.704 37.312 28.656 37.616 28.608 37.904C28.528 38.464 28.464 39.024 28.464 39.616C28.464 41.952 29.152 44.112 30.352 45.936C30.784 46.608 31.296 47.232 31.856 47.808C31.872 47.824 31.888 47.84 31.904 47.856C31.92 47.84 31.936 47.808 31.968 47.792C32.336 47.424 32.688 47.008 33.008 46.592C34.256 44.944 35.072 42.96 35.296 40.8C35.328 40.416 35.36 40.016 35.36 39.632C35.36 37.84 34.944 36.144 34.208 34.624C34.208 34.624 34.208 34.624 34.224 34.624C34.24 34.64 34.256 34.64 34.272 34.656C35.968 35.648 37.936 36.208 40.032 36.208C43.008 36.208 45.696 35.072 47.744 33.248C48.128 32.896 48.496 32.544 48.832 32.144C48.816 32.128 48.8 32.112 48.784 32.096C48.288 31.504 47.712 30.96 47.072 30.464Z" fill="#03755F"/>
</svg>
