<svg width="48" height="47" viewBox="0 0 48 47" fill="none" xmlns="http://www.w3.org/2000/svg">
<mask id="mask0" mask-type="alpha" maskUnits="userSpaceOnUse" x="0" y="0" width="48" height="47">
<path d="M0.47998 0.000244141H47.52V47H0.47998V0.000244141Z" fill="white"/>
</mask>
<g mask="url(#mask0)">
<path d="M47.52 23.5002C47.52 36.4781 36.9889 47.0002 24 47.0002C11.0091 47.0002 0.47998 36.4781 0.47998 23.5002C0.47998 10.5224 11.0091 0.000244141 24 0.000244141C36.9889 0.000244141 47.52 10.5224 47.52 23.5002Z" fill="#00765F"/>
</g>
<path d="M24.735 25.4032V31.1255C26.6146 30.9375 28.1473 30.0934 28.1473 28.3114C28.1473 26.59 26.7694 25.9672 24.735 25.4032ZM22.8279 20.619V15.3668C20.7914 15.5528 19.5096 16.4909 19.5096 17.9302C19.5096 19.4009 20.5719 20.0237 22.8279 20.619ZM22.8279 34.7523C17.5378 34.439 14.5645 31.8129 14.4391 27.4673H18.853C19.1019 29.8447 20.323 30.9375 22.8279 31.1255V24.9646C18.5688 23.9952 15.0643 22.9318 15.0643 18.3983C15.0643 14.2407 18.2885 12.02 22.8279 11.8007V9.73657H24.735V11.832C29.0234 12.208 31.7772 14.5834 32.0908 18.6489H27.8024C27.5828 16.8669 26.3951 15.7722 24.735 15.4588V21.0557C29.0862 21.9938 32.622 23.1825 32.622 27.81C32.622 32.0635 29.337 34.5349 24.735 34.7523V37.6604H22.8279V34.7523Z" fill="#72BF00"/>
</svg>
