<svg width="125" height="30" viewBox="0 0 125 30" fill="none" xmlns="http://www.w3.org/2000/svg">
<path fill-rule="evenodd" clip-rule="evenodd" d="M14.7691 0C14.1067 0 13.5698 0.541876 13.5698 1.20997C13.5698 1.87857 14.1067 2.4202 14.7691 2.4202C15.4316 2.4202 15.9685 1.87857 15.9685 1.20997C15.9685 0.541876 15.4316 0 14.7691 0Z" fill="#6FC100"/>
<path fill-rule="evenodd" clip-rule="evenodd" d="M14.7691 27.3438C14.1067 27.3438 13.5698 27.8856 13.5698 28.554C13.5698 29.2223 14.1067 29.7639 14.7691 29.7639C15.4316 29.7639 15.9685 29.2223 15.9685 28.554C15.9685 27.8856 15.4316 27.3438 14.7691 27.3438Z" fill="#6FC100"/>
<path fill-rule="evenodd" clip-rule="evenodd" d="M24.3592 6.44315C25.022 6.44315 25.5588 5.90127 25.5588 5.23317C25.5588 4.56457 25.022 4.02295 24.3592 4.02295C23.6968 4.02295 23.1599 4.56457 23.1599 5.23317C23.1599 5.90127 23.6968 6.44315 24.3592 6.44315Z" fill="#6FC100"/>
<path fill-rule="evenodd" clip-rule="evenodd" d="M24.3592 23.334C23.6968 23.334 23.1599 23.8759 23.1599 24.5442C23.1599 25.2126 23.6968 25.7542 24.3592 25.7542C25.022 25.7542 25.5588 25.2126 25.5588 24.5442C25.5588 23.8759 25.022 23.334 24.3592 23.334Z" fill="#6FC100"/>
<path fill-rule="evenodd" clip-rule="evenodd" d="M5.18466 23.334C4.52218 23.334 3.98532 23.8759 3.98532 24.5442C3.98532 25.2126 4.52218 25.7542 5.18466 25.7542C5.84713 25.7542 6.38399 25.2126 6.38399 24.5442C6.38399 23.8759 5.84713 23.334 5.18466 23.334Z" fill="#6FC100"/>
<mask id="mask0" mask-type="alpha" maskUnits="userSpaceOnUse" x="0" y="13" width="3" height="4">
<path d="M0 13.6938H2.39887V16.114H0V13.6938Z" fill="white"/>
</mask>
<g mask="url(#mask0)">
<path fill-rule="evenodd" clip-rule="evenodd" d="M2.39886 14.9038C2.39886 14.2355 1.86175 13.6938 1.19952 13.6938C0.537052 13.6938 -6.10352e-05 14.2355 -6.10352e-05 14.9038C-6.10352e-05 15.5722 0.537052 16.114 1.19952 16.114C1.86175 16.114 2.39886 15.5722 2.39886 14.9038Z" fill="#6FC100"/>
</g>
<path fill-rule="evenodd" clip-rule="evenodd" d="M28.341 13.6934C27.6785 13.6934 27.1417 14.2352 27.1417 14.9033C27.1417 15.5719 27.6785 16.1136 28.341 16.1136C29.0035 16.1136 29.5403 15.5719 29.5403 14.9033C29.5403 14.2352 29.0035 13.6934 28.341 13.6934Z" fill="#6FC100"/>
<path fill-rule="evenodd" clip-rule="evenodd" d="M5.18466 6.41092C5.84713 6.41092 6.38399 5.86904 6.38399 5.20069C6.38399 4.53235 5.84713 3.99072 5.18466 3.99072C4.52218 3.99072 3.98532 4.53235 3.98532 5.20069C3.98532 5.86904 4.52218 6.41092 5.18466 6.41092Z" fill="#6FC100"/>
<path fill-rule="evenodd" clip-rule="evenodd" d="M14.7691 4.02295C14.1067 4.02295 13.5698 4.56483 13.5698 5.23317V10.0366H13.571C13.5708 10.0475 13.5698 10.0581 13.5698 10.069C13.5698 10.7374 14.1067 11.279 14.7691 11.279C15.4316 11.279 15.9685 10.7374 15.9685 10.069C15.9685 10.0581 15.9675 10.0475 15.9672 10.0366H15.9685V5.23317C15.9685 4.56483 15.4316 4.02295 14.7691 4.02295Z" fill="#6FC100"/>
<path fill-rule="evenodd" clip-rule="evenodd" d="M14.7691 18.5303C14.1067 18.5303 13.5698 19.0722 13.5698 19.7405V24.5441H13.571C13.5708 24.5548 13.5698 24.5654 13.5698 24.5763C13.5698 25.2447 14.1067 25.7866 14.7691 25.7866C15.4316 25.7866 15.9685 25.2447 15.9685 24.5763C15.9685 24.5654 15.9675 24.5548 15.9672 24.5441H15.9685V19.7405C15.9685 19.0722 15.4316 18.5303 14.7691 18.5303Z" fill="#6FC100"/>
<path fill-rule="evenodd" clip-rule="evenodd" d="M12.3747 13.6948H5.21683V13.6963C5.20603 13.6961 5.19548 13.6948 5.18468 13.6948C4.5222 13.6948 3.98509 14.2367 3.98509 14.9048C3.98509 15.5734 4.5222 16.115 5.18468 16.115C5.19548 16.115 5.20603 16.1138 5.21683 16.1135V16.115H12.3747C13.0374 16.115 13.574 15.5734 13.574 14.9048C13.574 14.2367 13.0374 13.6948 12.3747 13.6948Z" fill="#6FC100"/>
<path fill-rule="evenodd" clip-rule="evenodd" d="M24.3592 16.115C25.022 16.115 25.5588 15.5731 25.5588 14.9048C25.5588 14.2364 25.022 13.6948 24.3592 13.6948H17.2014V13.6963C17.1906 13.6961 17.1801 13.6948 17.1693 13.6948C16.5068 13.6948 15.9697 14.2364 15.9697 14.9048C15.9697 15.5731 16.5068 16.115 17.1693 16.115C17.1801 16.115 17.1906 16.1138 17.2014 16.1135V16.115H24.3592Z" fill="#6FC100"/>
<path fill-rule="evenodd" clip-rule="evenodd" d="M19.5649 11.2792C20.2274 11.2792 20.7642 10.7376 20.7642 10.0692C20.7642 10.0583 20.763 10.0477 20.7627 10.0368H20.7642V2.07692C20.7642 1.40858 20.2274 0.866699 19.5649 0.866699C18.9022 0.866699 18.3653 1.40858 18.3653 2.07692V10.0368H18.3668C18.3666 10.0477 18.3653 10.0583 18.3653 10.0692C18.3653 10.7376 18.9022 11.2792 19.5649 11.2792Z" fill="#6FC100"/>
<path fill-rule="evenodd" clip-rule="evenodd" d="M9.94586 18.5303C9.28338 18.5303 8.74652 19.0722 8.74652 19.7405V27.7004H8.74803C8.74778 27.7113 8.74652 27.7216 8.74652 27.7328C8.74652 28.4009 9.28338 28.9428 9.94586 28.9428C10.6086 28.9428 11.1454 28.4009 11.1454 27.7328C11.1454 27.7216 11.1442 27.7113 11.1439 27.7004H11.1454V19.7405C11.1454 19.0722 10.6086 18.5303 9.94586 18.5303Z" fill="#6FC100"/>
<path fill-rule="evenodd" clip-rule="evenodd" d="M2.05615 11.2469H9.94578V11.2453C9.95658 11.2456 9.96713 11.2469 9.97793 11.2469C10.6404 11.2469 11.1775 10.705 11.1775 10.0366C11.1775 9.36828 10.6404 8.82666 9.97793 8.82666C9.96713 8.82666 9.95658 8.82793 9.94578 8.82818V8.82666H2.05615C1.39367 8.82666 0.856812 9.36828 0.856812 10.0366C0.856812 10.705 1.39367 11.2469 2.05615 11.2469Z" fill="#6FC100"/>
<path fill-rule="evenodd" clip-rule="evenodd" d="M27.4867 18.5303C27.4759 18.5303 27.4654 18.5315 27.4546 18.532V18.5303H19.5649C18.9022 18.5303 18.3651 19.0722 18.3651 19.7405C18.3651 20.4088 18.9022 20.9505 19.5649 20.9505H27.4546V20.9489C27.4654 20.9492 27.4759 20.9505 27.4867 20.9505C28.1492 20.9505 28.6861 20.4088 28.6861 19.7405C28.6861 19.0722 28.1492 18.5303 27.4867 18.5303Z" fill="#6FC100"/>
<path fill-rule="evenodd" clip-rule="evenodd" d="M9.97799 6.44311C10.6405 6.44311 11.1773 5.90123 11.1773 5.23314C11.1773 5.22199 11.1763 5.2116 11.1761 5.2007H11.1773V2.07667C11.1773 1.40832 10.6405 0.866699 9.97799 0.866699C9.31552 0.866699 8.77866 1.40832 8.77866 2.07667V5.2007H8.78016C8.77966 5.2116 8.77866 5.22199 8.77866 5.23314C8.77866 5.90123 9.31552 6.44311 9.97799 6.44311Z" fill="#6FC100"/>
<path fill-rule="evenodd" clip-rule="evenodd" d="M5.18243 20.9485C5.8449 20.9485 6.38177 20.4066 6.38177 19.7383C6.38177 19.0699 5.8449 18.5283 5.18243 18.5283H2.08587V18.5298C2.07507 18.5296 2.06477 18.5283 2.05396 18.5283C1.39124 18.5283 0.854126 19.0699 0.854126 19.7383C0.854126 20.4066 1.39124 20.9485 2.05396 20.9485C2.06477 20.9485 2.07507 20.9472 2.08587 20.9467V20.9485H5.18243Z" fill="#6FC100"/>
<path fill-rule="evenodd" clip-rule="evenodd" d="M24.3583 11.2791C24.3691 11.2791 24.3796 11.2778 24.3904 11.2776V11.2791H27.4867C28.1492 11.2791 28.6863 10.7375 28.6863 10.0691C28.6863 9.40076 28.1492 8.85889 27.4867 8.85889H24.3904V8.86066C24.3796 8.86041 24.3691 8.85889 24.3583 8.85889C23.6955 8.85889 23.1589 9.40076 23.1589 10.0691C23.1589 10.7375 23.6955 11.2791 24.3583 11.2791Z" fill="#6FC100"/>
<path fill-rule="evenodd" clip-rule="evenodd" d="M19.5649 23.334C18.9022 23.334 18.3653 23.8759 18.3653 24.5442C18.3653 24.5551 18.3666 24.5655 18.3668 24.5764H18.3653V27.7004C18.3653 28.3688 18.9022 28.9104 19.5649 28.9104C20.2274 28.9104 20.7642 28.3688 20.7642 27.7004V24.5764H20.7627C20.763 24.5655 20.7642 24.5551 20.7642 24.5442C20.7642 23.8759 20.2274 23.334 19.5649 23.334Z" fill="#6FC100"/>
<path fill-rule="evenodd" clip-rule="evenodd" d="M49.1152 8.40414C51.6015 8.40414 53.8102 10.1116 54.3667 12.4639L54.418 12.6811L56.899 12.3438L56.837 12.0787C56.025 8.61552 52.7777 6.10205 49.1152 6.10205C44.2352 6.10205 40.6934 9.7895 40.6928 14.8702C40.6816 17.375 41.5519 19.6421 43.1429 21.2548C44.6741 22.8072 46.7954 23.6618 49.1152 23.6618C52.7632 23.6618 56.0007 21.2634 56.8141 17.9587L56.8759 17.7068L54.4521 17.229L54.3913 17.449C53.765 19.7149 51.5462 21.3595 49.1152 21.3595C45.7 21.3595 43.221 18.6306 43.221 14.8704C43.221 11.1237 45.7 8.40414 49.1152 8.40414Z" fill="white"/>
<path fill-rule="evenodd" clip-rule="evenodd" d="M65.1001 21.3656C62.764 21.3656 61.1326 19.6266 61.1326 17.1368C61.1326 14.6998 62.8012 12.931 65.1001 12.931C67.3991 12.931 69.0674 14.6998 69.0674 17.1368C69.0674 19.5871 67.3991 21.3656 65.1001 21.3656ZM65.1001 10.7417C61.3811 10.7417 58.7834 13.3715 58.7834 17.1368C58.7834 20.9157 61.3811 23.5546 65.1001 23.5546C68.7599 23.5546 71.4169 20.8556 71.4169 17.1368C71.4169 13.4313 68.7599 10.7417 65.1001 10.7417Z" fill="white"/>
<path fill-rule="evenodd" clip-rule="evenodd" d="M86.9592 6.28223C86.145 6.28223 85.5538 6.86161 85.5538 7.65998C85.5538 8.48141 86.145 9.07778 86.9592 9.07778C87.7618 9.07778 88.3444 8.48141 88.3444 7.65998C88.3444 6.86161 87.7618 6.28223 86.9592 6.28223Z" fill="white"/>
<path fill-rule="evenodd" clip-rule="evenodd" d="M85.7646 23.2718H88.1336L88.1439 11.2539H85.7752L85.7646 23.2718Z" fill="white"/>
<path fill-rule="evenodd" clip-rule="evenodd" d="M97.2747 13.0134C99.5428 13.0134 101.253 14.837 101.253 17.2549C101.253 19.7263 99.5799 21.52 97.2747 21.52C94.9939 21.52 93.2735 19.6863 93.2735 17.2549C93.2735 14.837 94.9939 13.0134 97.2747 13.0134ZM97.5008 10.8056C95.7433 10.8056 94.2535 11.4948 93.3413 12.7126V6.46631H90.9721V23.2716H93.3413V21.7613C94.2651 23.0333 95.7164 23.7275 97.4782 23.7275C100.981 23.7275 103.622 20.9449 103.622 17.2549C103.622 13.5784 100.991 10.8056 97.5008 10.8056Z" fill="white"/>
<path fill-rule="evenodd" clip-rule="evenodd" d="M73.3009 21.0057V6.46631H75.6657V20.4167C75.6657 21.1175 76.0905 21.2343 76.6487 21.2343H77.4001V23.2716H76.1174C74.6294 23.2716 73.3009 22.7578 73.3009 21.0057Z" fill="white"/>
<path fill-rule="evenodd" clip-rule="evenodd" d="M79.3006 21.0057V6.46631H81.6653V20.4167C81.6653 21.1175 82.0901 21.2343 82.6484 21.2343H83.3998V23.2716H82.117C80.629 23.2716 79.3006 22.7578 79.3006 21.0057Z" fill="white"/>
<path fill-rule="evenodd" clip-rule="evenodd" d="M110.64 11.1348C109.455 11.1348 108.501 11.6249 107.847 12.5166V11.2615H105.523V23.2717H107.892V16.8219C107.892 14.6803 108.75 13.4244 110.531 13.4244C111.682 13.4244 112.218 13.7101 112.218 13.7101V11.4298C112.218 11.4298 111.744 11.1348 110.64 11.1348Z" fill="white"/>
<mask id="mask1" mask-type="alpha" maskUnits="userSpaceOnUse" x="113" y="10" width="12" height="14">
<path d="M113.086 10.8535H124.962V23.6616H113.086V10.8535Z" fill="white"/>
</mask>
<g mask="url(#mask1)">
<path fill-rule="evenodd" clip-rule="evenodd" d="M117.694 21.5904C116.293 21.5904 115.456 21.0273 115.456 20.0842C115.456 18.7216 117.095 18.2266 118.468 18.052L121.357 17.7192V18.4656C121.357 20.3054 119.851 21.5904 117.694 21.5904ZM124.705 21.2594C124.162 21.2594 123.75 21.1446 123.726 20.4963V15.4111C123.726 12.6424 121.731 10.8535 118.643 10.8535C115.611 10.8535 113.651 12.5172 113.651 15.092V15.3409H116.047L116.043 15.0879C116.035 14.5534 116.2 14.1091 116.533 13.7672C116.977 13.312 117.718 13.0613 118.621 13.0613C120.334 13.0613 121.357 13.9228 121.357 15.3654V15.6006L118.412 15.9616C115.028 16.3483 113.086 17.8677 113.086 20.1298C113.086 22.242 114.83 23.6616 117.423 23.6616C119.119 23.6616 120.469 23.0419 121.357 21.8639L121.482 21.8667C121.846 22.9517 122.955 23.2967 124.173 23.2967H124.962V21.2594H124.705Z" fill="white"/>
</g>
</svg>
