<svg width="147" height="21" viewBox="0 0 147 21" fill="none" xmlns="http://www.w3.org/2000/svg">
<mask id="mask0" mask-type="alpha" maskUnits="userSpaceOnUse" x="0" y="0" width="145" height="21">
<path d="M0.000167847 0.214661H144.038V20.7531H0.000167847V0.214661Z" fill="white"/>
</mask>
<g mask="url(#mask0)">
<path fill-rule="evenodd" clip-rule="evenodd" d="M132.845 10.3875C132.845 11.3593 132.845 11.4129 134.212 11.4129C135.199 11.4129 137.91 11.4129 137.91 7.95007C137.91 6.95126 137.525 3.98669 134.131 3.98669C132.872 3.98669 132.845 4.65065 132.845 5.73141V10.3875ZM129.914 6.00913C129.914 4.87345 129.914 4.124 128.574 4.04162C127.972 4.01327 127.587 3.98669 127.587 3.60001C127.587 3.21023 127.699 3.21023 128.601 3.21023C128.876 3.21023 130.216 3.32229 130.542 3.32229C131.284 3.32229 134.923 3.21023 135.747 3.21023C140.593 3.21023 141 6.59159 141 7.56339C141 10.8039 138.181 11.4683 137.249 11.6636C137.606 11.8847 137.936 12.0503 138.566 13.2148L141.219 17.9812C141.766 18.9512 142.15 19.6453 142.916 19.7543C143.82 19.8664 144.038 19.8947 144.038 20.2544C144.038 20.5587 143.766 20.5861 143.575 20.5861C143.218 20.5861 141.44 20.4772 141.028 20.4772C140.81 20.4772 139.797 20.5861 139.548 20.5861C139.058 20.5861 138.946 20.3363 138.647 19.7543L135.334 13.4354C134.732 12.2461 134.597 12.1354 133.365 12.1354C132.9 12.1354 132.845 12.2997 132.845 12.7727V17.7602C132.845 18.9229 132.845 19.6723 134.212 19.7543C134.815 19.7826 135.199 19.8097 135.199 20.2273C135.199 20.614 134.842 20.5861 134.623 20.5861C134.103 20.5861 131.447 20.4772 131.339 20.4772C130.873 20.4772 128.655 20.5861 128.163 20.5861C127.944 20.5861 127.587 20.614 127.587 20.1994C127.587 19.8097 127.999 19.7826 128.574 19.7543C129.914 19.6453 129.914 18.9229 129.914 17.7602V6.00913ZM114.647 6.03748C114.647 4.90003 114.647 4.15368 113.278 4.06997C112.676 4.04162 112.293 4.01327 112.293 3.60001C112.293 3.21023 112.65 3.21023 112.841 3.21023C112.896 3.21023 112.922 3.23858 113.524 3.2656C114.127 3.29527 115.304 3.32229 117.629 3.32229H118.944C121.766 3.32229 123.161 3.29527 123.898 3.2656C124.613 3.23858 124.64 3.21023 124.72 3.21023C125.05 3.21023 125.05 3.43125 125.05 4.06997V6.61994C125.05 6.75858 125.05 7.09167 124.774 7.09167C124.473 7.09167 124.419 6.97828 123.926 5.95421C123.6 5.23311 122.942 4.1807 119.056 4.1807C117.684 4.1807 117.574 4.3747 117.574 5.7602V9.77851C117.574 10.6653 117.574 10.8858 119.165 10.8858C122.201 10.8858 122.45 10.2768 122.942 8.80937C123.079 8.44838 123.215 8.39168 123.351 8.39168C123.518 8.39168 123.653 8.47672 123.653 8.78146C123.653 9.16815 123.463 12.0237 123.463 12.6328C123.463 12.8281 123.545 13.7968 123.545 14.0178C123.545 14.1853 123.545 14.5733 123.215 14.5733C122.997 14.5733 122.83 14.4355 122.695 13.9089C122.12 11.7739 121.354 11.746 119.11 11.746C117.796 11.746 117.574 11.746 117.574 12.5774V17.3452C117.574 19.3127 118.151 19.617 120.451 19.617C121.654 19.617 123.351 19.617 124.559 17.2601C125.05 16.2914 125.102 16.1811 125.349 16.1811C125.594 16.1811 125.676 16.4301 125.676 16.5957C125.676 16.9558 125.377 18.7302 125.294 19.7543C125.268 20.2814 124.992 20.5861 124.202 20.5861C122.804 20.5861 120.889 20.5587 119.301 20.5308C117.738 20.5037 116.454 20.4772 116.29 20.4772H115.96C114.838 20.4772 114.154 20.5037 113.716 20.5308C113.278 20.5587 113.059 20.5861 112.868 20.5861C112.65 20.5861 112.293 20.5861 112.293 20.1706C112.293 19.7826 112.703 19.7543 113.278 19.6994C114.647 19.617 114.647 18.868 114.647 17.7318V6.03748ZM104.387 17.7318C104.387 18.868 104.387 19.617 105.754 19.6994C106.33 19.7273 106.713 19.7543 106.713 20.1706C106.713 20.5861 106.357 20.5861 106.139 20.5861C105.235 20.5861 103.812 20.4772 102.906 20.4772C102.442 20.4772 100.226 20.5861 99.7055 20.5861C99.4859 20.5861 99.132 20.5861 99.132 20.1706C99.132 19.7826 99.5126 19.7543 100.087 19.6994C101.459 19.617 101.459 18.868 101.459 17.7872V4.90003C101.459 4.1807 101.238 4.1807 100.692 4.1807C99.048 4.1807 97.2402 4.1807 95.8472 6.81395C95.5979 7.25555 95.4622 7.36762 95.2172 7.36762C94.9963 7.36762 94.8607 7.17361 94.8607 7.00795C94.8607 6.86931 94.914 6.70188 94.9416 6.56457L96.0638 2.65656C96.1465 2.32347 96.2292 2.15782 96.4763 2.15782C96.6934 2.15782 96.776 2.29513 96.804 2.54627C96.9414 3.29527 97.4336 3.32229 98.0365 3.32229H106.821C109.642 3.32229 109.779 2.96086 109.971 2.46255C110.053 2.24153 110.134 2.07454 110.354 2.07454C110.736 2.07454 110.736 2.51748 110.736 3.18188L110.545 6.56457C110.519 7.11824 110.465 7.45 110.108 7.45C109.971 7.45 109.779 7.42298 109.668 6.84097C109.204 4.1807 107.862 4.1807 106.084 4.1807C104.523 4.1807 104.387 4.1807 104.387 5.0958V17.7318ZM88.593 20.7531C86.458 20.7531 84.7343 20.0037 84.2403 19.6453C83.9398 19.423 83.9127 19.035 83.9127 18.3422C83.9127 18.2315 83.9127 16.8451 83.994 15.8494C83.994 15.736 84.0207 15.3493 84.3506 15.3493C84.596 15.3493 84.6783 15.5721 84.7343 15.8197C85.2519 18.286 87.1169 20.032 89.0572 20.032C90.2074 20.032 92.3157 19.2006 92.3157 16.9558C92.3157 14.7956 90.455 13.7419 88.4841 12.8281C86.266 11.828 84.1034 10.7485 84.1034 7.81099C84.1034 5.26013 86.0214 3.04457 89.4965 3.04457C91.0846 3.04457 92.699 3.48795 93.0822 3.68195C93.4112 3.87596 93.4112 4.124 93.4112 6.56457C93.4112 7.17361 93.4112 7.39596 93.0262 7.39596C92.755 7.39596 92.6443 7.22898 92.37 6.36924C92.0427 5.28981 91.5488 3.70897 89.2769 3.70897C87.0329 3.70897 86.2927 5.28981 86.2927 6.36924C86.2927 8.33809 87.8825 9.03084 90.0714 9.9455C91.6065 10.6099 94.4787 11.9684 94.4787 15.0999C94.4787 18.1761 92.2348 20.7531 88.593 20.7531ZM70.9421 6.03748C70.9421 4.90003 70.9421 4.15368 69.574 4.06997C68.9725 4.04162 68.5875 4.01327 68.5875 3.60001C68.5875 3.21023 68.9445 3.21023 69.1344 3.21023C69.189 3.21023 69.217 3.23858 69.8204 3.2656C70.4232 3.29527 71.5997 3.32229 73.9263 3.32229H75.2401C78.0589 3.32229 79.4559 3.29527 80.1957 3.2656C80.9062 3.23858 80.9329 3.21023 81.0155 3.21023C81.3441 3.21023 81.3441 3.43125 81.3441 4.06997V6.61994C81.3441 6.75858 81.3441 7.09167 81.0715 7.09167C80.771 7.09167 80.7163 6.97828 80.2224 5.95421C79.892 5.23311 79.2358 4.1807 75.3495 4.1807C73.981 4.1807 73.8734 4.3747 73.8734 5.7602V9.77851C73.8734 10.6653 73.8734 10.8858 75.4584 10.8858C78.4986 10.8858 78.7436 10.2768 79.2358 8.80937C79.3714 8.44838 79.5101 8.39168 79.647 8.39168C79.8107 8.39168 79.948 8.47672 79.948 8.78146C79.948 9.16815 79.756 12.0237 79.756 12.6328C79.756 12.8281 79.8378 13.7968 79.8378 14.0178C79.8378 14.1853 79.8378 14.5733 79.5101 14.5733C79.2905 14.5733 79.1269 14.4355 78.9908 13.9089C78.4159 11.7739 77.6481 11.746 75.4024 11.746C74.0904 11.746 73.8734 11.746 73.8734 12.5774V17.3452C73.8734 19.3127 74.4482 19.617 76.7469 19.617C77.95 19.617 79.647 19.617 80.8519 17.2601C81.3441 16.2914 81.3988 16.1811 81.6451 16.1811C81.8927 16.1811 81.9741 16.4301 81.9741 16.5957C81.9741 16.9558 81.6731 18.7302 81.5909 19.7543C81.5624 20.2814 81.2894 20.5861 80.4936 20.5861C79.1002 20.5861 77.1835 20.5587 75.5967 20.5308C74.0357 20.5037 72.7512 20.4772 72.5832 20.4772H72.2572C71.1355 20.4772 70.4499 20.5037 70.012 20.5308C69.574 20.5587 69.3544 20.5861 69.1628 20.5861C68.9445 20.5861 68.5875 20.5861 68.5875 20.1706C68.5875 19.7826 68.9987 19.7543 69.574 19.6994C70.9421 19.617 70.9421 18.868 70.9421 17.7318V6.03748ZM56.5514 10.3875C56.5514 11.3593 56.5514 11.4129 57.9182 11.4129C58.9047 11.4129 61.6159 11.4129 61.6159 7.95007C61.6159 6.95126 61.2314 3.98669 57.8372 3.98669C56.5781 3.98669 56.5514 4.65065 56.5514 5.73141V10.3875ZM53.6219 6.00913C53.6219 4.87345 53.6219 4.124 52.2801 4.04162C51.6785 4.01327 51.2953 3.98669 51.2953 3.60001C51.2953 3.21023 51.406 3.21023 52.3068 3.21023C52.5824 3.21023 53.9225 3.32229 54.2528 3.32229C54.99 3.32229 58.6304 3.21023 59.4534 3.21023C64.2965 3.21023 64.7064 6.59159 64.7064 7.56339C64.7064 10.8039 61.8876 11.4683 60.957 11.6636C61.3127 11.8847 61.6426 12.0503 62.2722 13.2148L64.926 17.9812C65.4747 18.9512 65.8566 19.6453 66.6249 19.7543C67.5274 19.8664 67.747 19.8947 67.747 20.2544C67.747 20.5587 67.4727 20.5861 67.2824 20.5861C66.9241 20.5861 65.1461 20.4772 64.7344 20.4772C64.5165 20.4772 63.5033 20.5861 63.2587 20.5861C62.7648 20.5861 62.6541 20.3363 62.3535 19.7543L59.0404 13.4354C58.4388 12.2461 58.3032 12.1354 57.072 12.1354C56.6061 12.1354 56.5514 12.2997 56.5514 12.7727V17.7602C56.5514 18.9229 56.5514 19.6723 57.9182 19.7543C58.5215 19.7826 58.9047 19.8097 58.9047 20.2273C58.9047 20.614 58.5482 20.5861 58.3312 20.5861C57.8092 20.5861 55.1536 20.4772 55.0447 20.4772C54.5787 20.4772 52.3615 20.5861 51.8702 20.5861C51.6505 20.5861 51.2953 20.614 51.2953 20.1994C51.2953 19.8097 51.7052 19.7826 52.2801 19.7543C53.6219 19.6453 53.6219 18.9229 53.6219 17.7602V6.00913ZM38.9569 10.3875C38.9569 11.3593 38.9569 11.4129 40.325 11.4129C41.3115 11.4129 44.0201 11.4129 44.0201 7.95007C44.0201 6.95126 43.6382 3.98669 40.244 3.98669C38.9832 3.98669 38.9569 4.65065 38.9569 5.73141V10.3875ZM36.0257 6.00913C36.0257 4.87345 36.0257 4.124 34.6869 4.04162C34.0854 4.01327 33.7008 3.98669 33.7008 3.60001C33.7008 3.21023 33.811 3.21023 34.7136 3.21023C34.9879 3.21023 36.3297 3.32229 36.657 3.32229C37.3972 3.32229 41.0359 3.21023 41.8584 3.21023C46.702 3.21023 47.1137 6.59159 47.1137 7.56339C47.1137 10.8039 44.2944 11.4683 43.3625 11.6636C43.7195 11.8847 44.0481 12.0503 44.679 13.2148L47.3329 17.9812C47.8789 18.9512 48.2634 19.6453 49.0286 19.7543C49.9338 19.8664 50.1508 19.8947 50.1508 20.2544C50.1508 20.5587 49.8778 20.5861 49.6862 20.5861C49.3309 20.5861 47.5525 20.4772 47.1412 20.4772C46.9229 20.4772 45.9105 20.5861 45.6625 20.5861C45.1703 20.5861 45.0596 20.3363 44.7604 19.7543L41.4472 13.4354C40.8456 12.2461 40.71 12.1354 39.4771 12.1354C39.0129 12.1354 38.9569 12.2997 38.9569 12.7727V17.7602C38.9569 18.9229 38.9569 19.6723 40.325 19.7543C40.9283 19.7826 41.3115 19.8097 41.3115 20.2273C41.3115 20.614 40.9545 20.5861 40.7367 20.5861C40.216 20.5861 37.5609 20.4772 37.4515 20.4772C36.9855 20.4772 34.7683 20.5861 34.2757 20.5861C34.0574 20.5861 33.7008 20.614 33.7008 20.1994C33.7008 19.8097 34.112 19.7826 34.6869 19.7543C36.0257 19.6453 36.0257 18.9229 36.0257 17.7602V6.00913ZM24.3129 3.76434C20.4809 3.76434 18.4832 7.34104 18.4832 11.2756C18.4832 15.7643 21.0824 20.032 24.7789 20.032C28.6109 20.032 30.6085 15.736 30.6085 11.7172C30.6085 8.4218 28.6656 3.76434 24.3129 3.76434ZM24.5575 20.7531C19.7699 20.7531 15.1994 17.1494 15.1994 11.8576C15.1994 6.86931 19.3311 3.04457 24.6402 3.04457C29.7594 3.04457 33.8937 6.84097 33.8937 11.6083C33.8937 16.9855 29.2125 20.7531 24.5575 20.7531ZM2.76298 3.5318C2.76298 2.19768 2.76298 1.31934 1.15561 1.22189C0.48273 1.15811 0.000167847 1.12533 0.000167847 0.669555C0.000167847 0.214661 0.418418 0.214661 0.64198 0.214661C0.70673 0.214661 0.73998 0.246995 1.54323 0.279772C2.37711 0.310778 3.95254 0.343555 7.13098 0.343555H7.51729C10.8594 0.343555 12.5284 0.310778 13.3636 0.279772C14.2312 0.246995 14.2635 0.214661 14.2955 0.214661C14.8091 0.214661 14.841 0.375889 14.841 0.799778V4.24581C14.841 4.34503 14.841 4.86459 14.4871 4.86459C14.1349 4.86459 13.9109 4.37736 13.8453 4.21348C13.0757 2.42402 12.5608 1.35212 7.83886 1.35212C6.74773 1.35212 6.20042 1.41856 6.20042 2.94713V7.2715C6.20042 9.02774 6.2971 9.06007 6.71273 9.12518C7.1966 9.19073 8.19279 9.19073 8.67404 9.19073C11.2763 9.19073 11.6307 8.44262 12.1452 6.78427C12.2069 6.52471 12.3355 6.26249 12.6588 6.26249C12.9777 6.26249 13.042 6.49238 13.042 6.8166C13.042 7.2715 12.9471 9.48396 12.9471 9.97119C12.9471 10.2644 12.9471 10.8167 13.0114 11.5662L13.14 13.0943C13.14 13.3211 13.14 13.7104 12.7537 13.7104C12.4335 13.7104 12.2725 13.4172 12.2405 13.1909C12.1745 13.0292 11.9509 12.1172 11.8862 11.9542C11.4373 10.1975 9.37929 10.1975 8.57736 10.1975C6.20042 10.1975 6.20042 10.1975 6.20042 11.7261V17.257C6.20042 18.5251 6.20042 19.4996 7.67961 19.5984C8.61148 19.6312 9.06036 19.6626 9.06036 20.1507C9.06036 20.6061 8.64211 20.6061 8.38486 20.6061C7.29198 20.6061 5.59054 20.4772 4.49942 20.4772C3.43892 20.4772 1.73354 20.6061 0.67698 20.6061C0.418418 20.6061 0.000167847 20.6061 0.000167847 20.1184C0.000167847 19.6626 0.48273 19.6312 1.15561 19.5984C2.76298 19.4673 2.76298 18.6226 2.76298 17.2885V3.5318Z" fill="#FEFEFE"/>
</g>
<path fill-rule="evenodd" clip-rule="evenodd" d="M144.109 5.34918V4.51646H144.66C144.939 4.51646 145.238 4.57714 145.238 4.91156C145.238 5.32526 144.932 5.34918 144.592 5.34918H144.109ZM144.109 5.69644H144.575L145.276 6.86047H145.725L144.97 5.67651C145.361 5.6269 145.659 5.41739 145.659 4.93548C145.659 4.4044 145.347 4.17053 144.722 4.17053H143.708V6.86047H144.109V5.69644ZM144.599 7.84777C145.854 7.84777 146.925 6.86047 146.925 5.51085C146.925 4.17053 145.854 3.18323 144.599 3.18323C143.33 3.18323 142.259 4.17053 142.259 5.51085C142.259 6.86047 143.33 7.84777 144.599 7.84777ZM142.721 5.51085C142.721 4.4044 143.544 3.57301 144.599 3.57301C145.64 3.57301 146.463 4.4044 146.463 5.51085C146.463 6.63236 145.64 7.45976 144.599 7.45976C143.544 7.45976 142.721 6.63236 142.721 5.51085Z" fill="#FEFEFE"/>
</svg>
